<?xml version="1.0" encoding="UTF-8" standalone="no"?>
<!DOCTYPE svg PUBLIC "-//W3C//DTD SVG 1.1//EN"
 "http://www.w3.org/Graphics/SVG/1.1/DTD/svg11.dtd">
<!-- Generated by graphviz version 2.40.1 (20161225.0304)
 -->
<!-- Title: G Pages: 1 -->
<svg width="555pt" height="545pt"
 viewBox="0.00 0.00 555.42 544.76" xmlns="http://www.w3.org/2000/svg" xmlns:xlink="http://www.w3.org/1999/xlink">
<g id="graph0" class="graph" transform="scale(1 1) rotate(0) translate(4 540.7578)">
<title>G</title>
<polygon fill="#ffffff" stroke="transparent" points="-4,4 -4,-540.7578 551.4241,-540.7578 551.4241,4 -4,4"/>
<!-- a0 -->
<g id="node1" class="node">
<title>a0</title>
<ellipse fill="none" stroke="#000000" cx="273.712" cy="-475.7578" rx="61" ry="61"/>
<text text-anchor="middle" x="273.712" y="-472.0578" font-family="Segoe UI" font-size="14.00" fill="#000000">env</text>
</g>
<!-- a1 -->
<g id="node2" class="node">
<title>a1</title>
<ellipse fill="none" stroke="#000000" cx="444.2939" cy="-393.6099" rx="61" ry="61"/>
<text text-anchor="middle" x="444.2939" y="-389.9099" font-family="Segoe UI" font-size="14.00" fill="#000000">leadadversary_0</text>
</g>
<!-- a0&#45;&gt;a1 -->
<g id="edge1" class="edge">
<title>a0&#45;&gt;a1</title>
<path fill="none" stroke="#000000" d="M329.0951,-449.0868C345.3474,-441.2601 363.2586,-432.6345 380.0158,-424.5646"/>
<polygon fill="#000000" stroke="#000000" points="381.6976,-427.6395 389.1887,-420.1472 378.6604,-421.3327 381.6976,-427.6395"/>
</g>
<!-- a2 -->
<g id="node3" class="node">
<title>a2</title>
<ellipse fill="none" stroke="#000000" cx="486.4241" cy="-209.0253" rx="61" ry="61"/>
<text text-anchor="middle" x="486.4241" y="-205.3253" font-family="Segoe UI" font-size="14.00" fill="#000000">adversary_0</text>
</g>
<!-- a1&#45;&gt;a2 -->
<g id="edge2" class="edge">
<title>a1&#45;&gt;a2</title>
<path fill="none" stroke="#000000" d="M457.9142,-333.9355C461.9305,-316.3388 466.3612,-296.9266 470.5083,-278.7571"/>
<polygon fill="#000000" stroke="#000000" points="473.9655,-279.3384 472.7786,-268.8103 467.141,-277.7807 473.9655,-279.3384"/>
</g>
<!-- a3 -->
<g id="node4" class="node">
<title>a3</title>
<ellipse fill="none" stroke="#000000" cx="368.3778" cy="-61" rx="61" ry="61"/>
<text text-anchor="middle" x="368.3778" y="-57.3" font-family="Segoe UI" font-size="14.00" fill="#000000">adversary_1</text>
</g>
<!-- a2&#45;&gt;a3 -->
<g id="edge3" class="edge">
<title>a2&#45;&gt;a3</title>
<path fill="none" stroke="#000000" d="M448.0979,-160.9658C436.8509,-146.8625 424.456,-131.3198 412.8596,-116.7784"/>
<polygon fill="#000000" stroke="#000000" points="415.4831,-114.4546 406.5118,-108.8185 410.0103,-118.819 415.4831,-114.4546"/>
</g>
<!-- a4 -->
<g id="node5" class="node">
<title>a4</title>
<ellipse fill="none" stroke="#000000" cx="179.0463" cy="-61" rx="61" ry="61"/>
<text text-anchor="middle" x="179.0463" y="-57.3" font-family="Segoe UI" font-size="14.00" fill="#000000">adversary_2</text>
</g>
<!-- a3&#45;&gt;a4 -->
<g id="edge4" class="edge">
<title>a3&#45;&gt;a4</title>
<path fill="none" stroke="#000000" d="M307.1688,-61C289.1195,-61 269.2081,-61 250.5713,-61"/>
<polygon fill="#000000" stroke="#000000" points="250.3687,-57.5001 240.3687,-61 250.3686,-64.5001 250.3687,-57.5001"/>
</g>
<!-- a5 -->
<g id="node6" class="node">
<title>a5</title>
<ellipse fill="none" stroke="#000000" cx="61" cy="-209.0253" rx="61" ry="61"/>
<text text-anchor="middle" x="61" y="-205.3253" font-family="Segoe UI" font-size="14.00" fill="#000000">agent_0</text>
</g>
<!-- a4&#45;&gt;a5 -->
<g id="edge5" class="edge">
<title>a4&#45;&gt;a5</title>
<path fill="none" stroke="#000000" d="M140.72,-109.0596C129.4731,-123.1628 117.0782,-138.7056 105.4818,-153.2469"/>
<polygon fill="#000000" stroke="#000000" points="102.6325,-151.2063 99.1339,-161.2069 108.1053,-155.5708 102.6325,-151.2063"/>
</g>
<!-- a6 -->
<g id="node7" class="node">
<title>a6</title>
<ellipse fill="none" stroke="#000000" cx="103.1302" cy="-393.6099" rx="61" ry="61"/>
<text text-anchor="middle" x="103.1302" y="-389.9099" font-family="Segoe UI" font-size="14.00" fill="#000000">agent_1</text>
</g>
<!-- a5&#45;&gt;a6 -->
<g id="edge6" class="edge">
<title>a5&#45;&gt;a6</title>
<path fill="none" stroke="#000000" d="M74.6203,-268.6998C78.6366,-286.2965 83.0673,-305.7087 87.2144,-323.8782"/>
<polygon fill="#000000" stroke="#000000" points="83.8472,-324.8546 89.4847,-333.825 90.6717,-323.2969 83.8472,-324.8546"/>
</g>
<!-- a6&#45;&gt;a0 -->
<g id="edge7" class="edge">
<title>a6&#45;&gt;a0</title>
<path fill="none" stroke="#000000" d="M158.5133,-420.281C174.7656,-428.1077 192.6768,-436.7333 209.4339,-444.8031"/>
<polygon fill="#000000" stroke="#000000" points="208.0786,-448.0351 218.6069,-449.2206 211.1158,-441.7283 208.0786,-448.0351"/>
</g>
</g>
</svg>
