<?xml version="1.0" encoding="UTF-8" standalone="no"?>
<!DOCTYPE svg PUBLIC "-//W3C//DTD SVG 1.1//EN"
 "http://www.w3.org/Graphics/SVG/1.1/DTD/svg11.dtd">
<!-- Generated by graphviz version 2.40.1 (20161225.0304)
 -->
<!-- Title: G Pages: 1 -->
<svg width="73pt" height="156pt"
 viewBox="0.00 0.00 73.00 155.51" xmlns="http://www.w3.org/2000/svg" xmlns:xlink="http://www.w3.org/1999/xlink">
<g id="graph0" class="graph" transform="scale(1 1) rotate(0) translate(4 151.5059)">
<title>G</title>
<polygon fill="#ffffff" stroke="transparent" points="-4,4 -4,-151.5059 69,-151.5059 69,4 -4,4"/>
<!-- a0 -->
<g id="node1" class="node">
<title>a0</title>
<ellipse fill="none" stroke="#000000" cx="32.5" cy="-115.0059" rx="32.5" ry="32.5"/>
<text text-anchor="middle" x="32.5" y="-111.3059" font-family="Segoe UI" font-size="14.00" fill="#000000">env</text>
</g>
<!-- a1 -->
<g id="node2" class="node">
<title>a1</title>
<ellipse fill="none" stroke="#000000" cx="32.5" cy="-32.5" rx="32.5" ry="32.5"/>
<text text-anchor="middle" x="32.5" y="-28.8" font-family="Segoe UI" font-size="14.00" fill="#000000">agent_0</text>
</g>
<!-- a0&#45;&gt;a1 -->
<g id="edge1" class="edge">
<title>a0&#45;&gt;a1</title>
<path fill="none" stroke="#000000" d="M39.1013,-82.8707C39.1922,-80.1234 39.2415,-77.3193 39.249,-74.5105"/>
<polygon fill="#000000" stroke="#000000" points="42.7471,-74.3569 39.0938,-64.4119 35.748,-74.4645 42.7471,-74.3569"/>
</g>
<!-- a1&#45;&gt;a0 -->
<g id="edge2" class="edge">
<title>a1&#45;&gt;a0</title>
<path fill="none" stroke="#000000" d="M25.8987,-64.6352C25.8078,-67.3825 25.7585,-70.1866 25.751,-72.9954"/>
<polygon fill="#000000" stroke="#000000" points="22.2529,-73.1491 25.9062,-83.0941 29.252,-73.0414 22.2529,-73.1491"/>
</g>
</g>
</svg>
