<?xml version="1.0" encoding="UTF-8" standalone="no"?>
<!DOCTYPE svg PUBLIC "-//W3C//DTD SVG 1.1//EN"
 "http://www.w3.org/Graphics/SVG/1.1/DTD/svg11.dtd">
<!-- Generated by graphviz version 2.40.1 (20161225.0304)
 -->
<!-- Title: G Pages: 1 -->
<svg width="445pt" height="439pt"
 viewBox="0.00 0.00 444.51 439.08" xmlns="http://www.w3.org/2000/svg" xmlns:xlink="http://www.w3.org/1999/xlink">
<g id="graph0" class="graph" transform="scale(1 1) rotate(0) translate(4 435.0795)">
<title>G</title>
<polygon fill="#ffffff" stroke="transparent" points="-4,4 -4,-435.0795 440.5109,-435.0795 440.5109,4 -4,4"/>
<!-- a0 -->
<g id="node1" class="node">
<title>a0</title>
<ellipse fill="none" stroke="#000000" cx="218.2554" cy="-391.5795" rx="39.5" ry="39.5"/>
<text text-anchor="middle" x="218.2554" y="-387.8795" font-family="Segoe UI" font-size="14.00" fill="#000000">env</text>
</g>
<!-- a1 -->
<g id="node2" class="node">
<title>a1</title>
<ellipse fill="none" stroke="#000000" cx="334.9298" cy="-349.1135" rx="39.5" ry="39.5"/>
<text text-anchor="middle" x="334.9298" y="-345.4135" font-family="Segoe UI" font-size="14.00" fill="#000000">pursuer_0</text>
</g>
<!-- a0&#45;&gt;a1 -->
<g id="edge1" class="edge">
<title>a0&#45;&gt;a1</title>
<path fill="none" stroke="#000000" d="M255.4927,-378.0262C265.8068,-374.2722 277.1379,-370.148 287.9305,-366.2198"/>
<polygon fill="#000000" stroke="#000000" points="289.4462,-369.3928 297.6461,-362.6837 287.052,-362.815 289.4462,-369.3928"/>
</g>
<!-- a2 -->
<g id="node3" class="node">
<title>a2</title>
<ellipse fill="none" stroke="#000000" cx="397.0109" cy="-241.5859" rx="39.5" ry="39.5"/>
<text text-anchor="middle" x="397.0109" y="-237.8859" font-family="Segoe UI" font-size="14.00" fill="#000000">pursuer_1</text>
</g>
<!-- a1&#45;&gt;a2 -->
<g id="edge2" class="edge">
<title>a1&#45;&gt;a2</title>
<path fill="none" stroke="#000000" d="M354.7433,-314.7954C360.2313,-305.2899 366.2605,-294.8471 372.0031,-284.9006"/>
<polygon fill="#000000" stroke="#000000" points="375.2037,-286.357 377.1726,-275.9467 369.1415,-282.8569 375.2037,-286.357"/>
</g>
<!-- a3 -->
<g id="node4" class="node">
<title>a3</title>
<ellipse fill="none" stroke="#000000" cx="375.4503" cy="-119.3099" rx="39.5" ry="39.5"/>
<text text-anchor="middle" x="375.4503" y="-115.6099" font-family="Segoe UI" font-size="14.00" fill="#000000">pursuer_2</text>
</g>
<!-- a2&#45;&gt;a3 -->
<g id="edge3" class="edge">
<title>a2&#45;&gt;a3</title>
<path fill="none" stroke="#000000" d="M390.1297,-202.5608C388.2237,-191.7515 386.1298,-179.8764 384.1354,-168.5657"/>
<polygon fill="#000000" stroke="#000000" points="387.5235,-167.6239 382.3401,-158.3836 380.6298,-168.8395 387.5235,-167.6239"/>
</g>
<!-- a4 -->
<g id="node5" class="node">
<title>a4</title>
<ellipse fill="none" stroke="#000000" cx="280.3366" cy="-39.5" rx="39.5" ry="39.5"/>
<text text-anchor="middle" x="280.3366" y="-35.8" font-family="Segoe UI" font-size="14.00" fill="#000000">pursuer_3</text>
</g>
<!-- a3&#45;&gt;a4 -->
<g id="edge4" class="edge">
<title>a3&#45;&gt;a4</title>
<path fill="none" stroke="#000000" d="M345.0942,-93.8381C336.6861,-86.7829 327.4489,-79.032 318.6507,-71.6494"/>
<polygon fill="#000000" stroke="#000000" points="320.6407,-68.7503 310.7305,-65.0035 316.1412,-74.1126 320.6407,-68.7503"/>
</g>
<!-- a5 -->
<g id="node6" class="node">
<title>a5</title>
<ellipse fill="none" stroke="#000000" cx="156.1743" cy="-39.5" rx="39.5" ry="39.5"/>
<text text-anchor="middle" x="156.1743" y="-35.8" font-family="Segoe UI" font-size="14.00" fill="#000000">pursuer_4</text>
</g>
<!-- a4&#45;&gt;a5 -->
<g id="edge5" class="edge">
<title>a4&#45;&gt;a5</title>
<path fill="none" stroke="#000000" d="M240.7095,-39.5C229.7334,-39.5 217.6751,-39.5 206.1899,-39.5"/>
<polygon fill="#000000" stroke="#000000" points="205.8508,-36.0001 195.8508,-39.5 205.8508,-43.0001 205.8508,-36.0001"/>
</g>
<!-- a6 -->
<g id="node7" class="node">
<title>a6</title>
<ellipse fill="none" stroke="#000000" cx="61.0605" cy="-119.3099" rx="39.5" ry="39.5"/>
<text text-anchor="middle" x="61.0605" y="-115.6099" font-family="Segoe UI" font-size="14.00" fill="#000000">pursuer_5</text>
</g>
<!-- a5&#45;&gt;a6 -->
<g id="edge6" class="edge">
<title>a5&#45;&gt;a6</title>
<path fill="none" stroke="#000000" d="M125.8182,-64.9718C117.4101,-72.0271 108.1729,-79.778 99.3747,-87.1606"/>
<polygon fill="#000000" stroke="#000000" points="96.8652,-84.6973 91.4545,-93.8064 101.3647,-90.0596 96.8652,-84.6973"/>
</g>
<!-- a7 -->
<g id="node8" class="node">
<title>a7</title>
<ellipse fill="none" stroke="#000000" cx="39.5" cy="-241.5859" rx="39.5" ry="39.5"/>
<text text-anchor="middle" x="39.5" y="-237.8859" font-family="Segoe UI" font-size="14.00" fill="#000000">pursuer_6</text>
</g>
<!-- a6&#45;&gt;a7 -->
<g id="edge7" class="edge">
<title>a6&#45;&gt;a7</title>
<path fill="none" stroke="#000000" d="M54.1794,-158.335C52.2734,-169.1443 50.1795,-181.0194 48.1851,-192.3301"/>
<polygon fill="#000000" stroke="#000000" points="44.6795,-192.0563 46.3897,-202.5122 51.5731,-193.2719 44.6795,-192.0563"/>
</g>
<!-- a8 -->
<g id="node9" class="node">
<title>a8</title>
<ellipse fill="none" stroke="#000000" cx="101.5811" cy="-349.1135" rx="39.5" ry="39.5"/>
<text text-anchor="middle" x="101.5811" y="-345.4135" font-family="Segoe UI" font-size="14.00" fill="#000000">pursuer_7</text>
</g>
<!-- a7&#45;&gt;a8 -->
<g id="edge8" class="edge">
<title>a7&#45;&gt;a8</title>
<path fill="none" stroke="#000000" d="M59.3135,-275.9039C64.8016,-285.4094 70.8307,-295.8522 76.5733,-305.7987"/>
<polygon fill="#000000" stroke="#000000" points="73.7117,-307.8424 81.7429,-314.7527 79.7739,-304.3424 73.7117,-307.8424"/>
</g>
<!-- a8&#45;&gt;a0 -->
<g id="edge9" class="edge">
<title>a8&#45;&gt;a0</title>
<path fill="none" stroke="#000000" d="M138.8184,-362.6668C149.1325,-366.4208 160.4636,-370.545 171.2562,-374.4731"/>
<polygon fill="#000000" stroke="#000000" points="170.3777,-377.878 180.9717,-378.0093 172.7719,-371.3001 170.3777,-377.878"/>
</g>
</g>
</svg>
