<?xml version="1.0" encoding="UTF-8" standalone="no"?>
<!DOCTYPE svg PUBLIC "-//W3C//DTD SVG 1.1//EN"
 "http://www.w3.org/Graphics/SVG/1.1/DTD/svg11.dtd">
<!-- Generated by graphviz version 2.40.1 (20161225.0304)
 -->
<!-- Title: G Pages: 1 -->
<svg width="199pt" height="183pt"
 viewBox="0.00 0.00 199.09 183.13" xmlns="http://www.w3.org/2000/svg" xmlns:xlink="http://www.w3.org/1999/xlink">
<g id="graph0" class="graph" transform="scale(1 1) rotate(0) translate(4 179.1324)">
<title>G</title>
<polygon fill="#ffffff" stroke="transparent" points="-4,4 -4,-179.1324 195.087,-179.1324 195.087,4 -4,4"/>
<!-- a0 -->
<g id="node1" class="node">
<title>a0</title>
<ellipse fill="none" stroke="#000000" cx="95.5435" cy="-139.1324" rx="36" ry="36"/>
<text text-anchor="middle" x="95.5435" y="-135.4324" font-family="Segoe UI" font-size="14.00" fill="#000000">env</text>
</g>
<!-- a1 -->
<g id="node2" class="node">
<title>a1</title>
<ellipse fill="none" stroke="#000000" cx="155.087" cy="-36" rx="36" ry="36"/>
<text text-anchor="middle" x="155.087" y="-32.3" font-family="Segoe UI" font-size="14.00" fill="#000000">paddle_0</text>
</g>
<!-- a0&#45;&gt;a1 -->
<g id="edge1" class="edge">
<title>a0&#45;&gt;a1</title>
<path fill="none" stroke="#000000" d="M113.5701,-107.9094C119.3463,-97.9049 125.8248,-86.6836 131.9154,-76.1345"/>
<polygon fill="#000000" stroke="#000000" points="134.9473,-77.8831 136.9162,-67.4728 128.8851,-74.383 134.9473,-77.8831"/>
</g>
<!-- a2 -->
<g id="node3" class="node">
<title>a2</title>
<ellipse fill="none" stroke="#000000" cx="36" cy="-36" rx="36" ry="36"/>
<text text-anchor="middle" x="36" y="-32.3" font-family="Segoe UI" font-size="14.00" fill="#000000">paddle_1</text>
</g>
<!-- a1&#45;&gt;a2 -->
<g id="edge2" class="edge">
<title>a1&#45;&gt;a2</title>
<path fill="none" stroke="#000000" d="M119.0338,-36C107.4816,-36 94.5244,-36 82.3433,-36"/>
<polygon fill="#000000" stroke="#000000" points="82.3417,-32.5001 72.3417,-36 82.3416,-39.5001 82.3417,-32.5001"/>
</g>
<!-- a2&#45;&gt;a0 -->
<g id="edge3" class="edge">
<title>a2&#45;&gt;a0</title>
<path fill="none" stroke="#000000" d="M54.0266,-67.223C59.8027,-77.2275 66.2813,-88.4488 72.3719,-98.9979"/>
<polygon fill="#000000" stroke="#000000" points="69.3415,-100.7494 77.3727,-107.6596 75.4037,-97.2493 69.3415,-100.7494"/>
</g>
</g>
</svg>
