<?xml version="1.0" encoding="UTF-8" standalone="no"?>
<!DOCTYPE svg PUBLIC "-//W3C//DTD SVG 1.1//EN"
 "http://www.w3.org/Graphics/SVG/1.1/DTD/svg11.dtd">
<!-- Generated by graphviz version 2.40.1 (20161225.0304)
 -->
<!-- Title: G Pages: 1 -->
<svg width="484pt" height="478pt"
 viewBox="0.00 0.00 484.01 478.09" xmlns="http://www.w3.org/2000/svg" xmlns:xlink="http://www.w3.org/1999/xlink">
<g id="graph0" class="graph" transform="scale(1 1) rotate(0) translate(4 474.0867)">
<title>G</title>
<polygon fill="#ffffff" stroke="transparent" points="-4,4 -4,-474.0867 480.0119,-474.0867 480.0119,4 -4,4"/>
<!-- a0 -->
<g id="node1" class="node">
<title>a0</title>
<ellipse fill="none" stroke="#000000" cx="238.0059" cy="-427.0867" rx="43" ry="43"/>
<text text-anchor="middle" x="238.0059" y="-423.3867" font-family="Segoe UI" font-size="14.00" fill="#000000">env</text>
</g>
<!-- a1 -->
<g id="node2" class="node">
<title>a1</title>
<ellipse fill="none" stroke="#000000" cx="365.287" cy="-380.7602" rx="43" ry="43"/>
<text text-anchor="middle" x="365.287" y="-377.0602" font-family="Segoe UI" font-size="14.00" fill="#000000">prisoner_0</text>
</g>
<!-- a0&#45;&gt;a1 -->
<g id="edge1" class="edge">
<title>a0&#45;&gt;a1</title>
<path fill="none" stroke="#000000" d="M278.6284,-412.3013C290.2246,-408.0807 302.9992,-403.4311 315.0947,-399.0287"/>
<polygon fill="#000000" stroke="#000000" points="316.4141,-402.2732 324.6139,-395.564 314.0199,-395.6953 316.4141,-402.2732"/>
</g>
<!-- a2 -->
<g id="node3" class="node">
<title>a2</title>
<ellipse fill="none" stroke="#000000" cx="433.0119" cy="-263.4573" rx="43" ry="43"/>
<text text-anchor="middle" x="433.0119" y="-259.7573" font-family="Segoe UI" font-size="14.00" fill="#000000">prisoner_1</text>
</g>
<!-- a1&#45;&gt;a2 -->
<g id="edge2" class="edge">
<title>a1&#45;&gt;a2</title>
<path fill="none" stroke="#000000" d="M386.9018,-343.3223C393.072,-332.6352 399.8692,-320.8621 406.3051,-309.7148"/>
<polygon fill="#000000" stroke="#000000" points="409.4012,-311.3521 411.3702,-300.9419 403.339,-307.8521 409.4012,-311.3521"/>
</g>
<!-- a3 -->
<g id="node4" class="node">
<title>a3</title>
<ellipse fill="none" stroke="#000000" cx="409.4913" cy="-130.0654" rx="43" ry="43"/>
<text text-anchor="middle" x="409.4913" y="-126.3654" font-family="Segoe UI" font-size="14.00" fill="#000000">prisoner_2</text>
</g>
<!-- a2&#45;&gt;a3 -->
<g id="edge3" class="edge">
<title>a2&#45;&gt;a3</title>
<path fill="none" stroke="#000000" d="M425.5051,-220.8845C423.3622,-208.7316 421.0016,-195.3437 418.7664,-182.6675"/>
<polygon fill="#000000" stroke="#000000" points="422.1908,-181.9315 417.0074,-172.6913 415.2971,-183.1471 422.1908,-181.9315"/>
</g>
<!-- a4 -->
<g id="node5" class="node">
<title>a4</title>
<ellipse fill="none" stroke="#000000" cx="305.7308" cy="-43" rx="43" ry="43"/>
<text text-anchor="middle" x="305.7308" y="-39.3" font-family="Segoe UI" font-size="14.00" fill="#000000">prisoner_3</text>
</g>
<!-- a3&#45;&gt;a4 -->
<g id="edge4" class="edge">
<title>a3&#45;&gt;a4</title>
<path fill="none" stroke="#000000" d="M376.3755,-102.278C366.9222,-94.3457 356.5083,-85.6074 346.648,-77.3336"/>
<polygon fill="#000000" stroke="#000000" points="348.7981,-74.5688 338.8878,-70.8221 344.2985,-79.9311 348.7981,-74.5688"/>
</g>
<!-- a5 -->
<g id="node6" class="node">
<title>a5</title>
<ellipse fill="none" stroke="#000000" cx="170.2811" cy="-43" rx="43" ry="43"/>
<text text-anchor="middle" x="170.2811" y="-39.3" font-family="Segoe UI" font-size="14.00" fill="#000000">prisoner_4</text>
</g>
<!-- a4&#45;&gt;a5 -->
<g id="edge5" class="edge">
<title>a4&#45;&gt;a5</title>
<path fill="none" stroke="#000000" d="M262.5012,-43C250.1608,-43 236.5664,-43 223.6947,-43"/>
<polygon fill="#000000" stroke="#000000" points="223.5645,-39.5001 213.5645,-43 223.5645,-46.5001 223.5645,-39.5001"/>
</g>
<!-- a6 -->
<g id="node7" class="node">
<title>a6</title>
<ellipse fill="none" stroke="#000000" cx="66.5206" cy="-130.0654" rx="43" ry="43"/>
<text text-anchor="middle" x="66.5206" y="-126.3654" font-family="Segoe UI" font-size="14.00" fill="#000000">prisoner_5</text>
</g>
<!-- a5&#45;&gt;a6 -->
<g id="edge6" class="edge">
<title>a5&#45;&gt;a6</title>
<path fill="none" stroke="#000000" d="M137.1653,-70.7874C127.712,-78.7197 117.2981,-87.458 107.4378,-95.7318"/>
<polygon fill="#000000" stroke="#000000" points="105.0883,-93.1343 99.6776,-102.2433 109.5879,-98.4966 105.0883,-93.1343"/>
</g>
<!-- a7 -->
<g id="node8" class="node">
<title>a7</title>
<ellipse fill="none" stroke="#000000" cx="43" cy="-263.4573" rx="43" ry="43"/>
<text text-anchor="middle" x="43" y="-259.7573" font-family="Segoe UI" font-size="14.00" fill="#000000">prisoner_6</text>
</g>
<!-- a6&#45;&gt;a7 -->
<g id="edge7" class="edge">
<title>a6&#45;&gt;a7</title>
<path fill="none" stroke="#000000" d="M59.0139,-172.6382C56.871,-184.7911 54.5103,-198.179 52.2752,-210.8552"/>
<polygon fill="#000000" stroke="#000000" points="48.8058,-210.3756 50.5161,-220.8315 55.6995,-211.5912 48.8058,-210.3756"/>
</g>
<!-- a8 -->
<g id="node9" class="node">
<title>a8</title>
<ellipse fill="none" stroke="#000000" cx="110.7249" cy="-380.7602" rx="43" ry="43"/>
<text text-anchor="middle" x="110.7249" y="-377.0602" font-family="Segoe UI" font-size="14.00" fill="#000000">prisoner_7</text>
</g>
<!-- a7&#45;&gt;a8 -->
<g id="edge8" class="edge">
<title>a7&#45;&gt;a8</title>
<path fill="none" stroke="#000000" d="M64.6148,-300.8952C70.785,-311.5823 77.5822,-323.3554 84.0181,-334.5027"/>
<polygon fill="#000000" stroke="#000000" points="81.052,-336.3654 89.0831,-343.2756 87.1142,-332.8654 81.052,-336.3654"/>
</g>
<!-- a8&#45;&gt;a0 -->
<g id="edge9" class="edge">
<title>a8&#45;&gt;a0</title>
<path fill="none" stroke="#000000" d="M151.3473,-395.5456C162.9435,-399.7662 175.7181,-404.4158 187.8136,-408.8182"/>
<polygon fill="#000000" stroke="#000000" points="186.7388,-412.1516 197.3328,-412.2829 189.133,-405.5737 186.7388,-412.1516"/>
</g>
</g>
</svg>
