<svg id="PettingZoo" xmlns="http://www.w3.org/2000/svg" xmlns:xlink="http://www.w3.org/1999/xlink" width="1000" height="1000" viewBox="0 0 1000 1000">
  <defs>
    <style>
      .cls-1 {
        fill: #160c08;
        fill-rule: evenodd;
        filter: url(#filter);
      }
    </style>
    <filter id="filter" x="124" y="81.438" width="752" height="860.782" filterUnits="userSpaceOnUse">
      <feFlood result="flood" flood-color="#fff"/>
      <feComposite result="composite" operator="in" in2="SourceGraphic"/>
      <feBlend result="blend" in2="SourceGraphic"/>
    </filter>
  </defs>
  <path id="Color_Fill_1" data-name="Color Fill 1" class="cls-1" d="M804,420c2.873,18.578,11.352,38.717,18,53,13.274,28.52,24.453,53.4,32,84,6.269,25.418.728,51.908-5.981,70.105C846.3,631.774,844.426,637.458,838,641v16c-0.509,5.126-1.933,12.2-4,16-4.774,8.776-9.3,16.969-19,15-6.509-1.775-12.929-10.04-18-15-4.687-4.584-6.924-7.25-12.987-13.971C784,683.346,773.751,701.381,764,716c-20.267,30.385-44.472,49.753-74,70-4.037,2.768-11.41,9.638-15,13-10.756,10.072-33.367,31.384-38.889,70.472-2.554,9.706-8.912,12.8-20.111,7.528a109.161,109.161,0,0,1-24-28c-5.882-9.49-11.606-19.042-15-30-1.192,5.092-3.968,13.128-6,19a183.458,183.458,0,0,1-14,30c-8.473,14.764-16.068,30.148-26,44-8.279,11.546-14.284,16.866-24,27-5.4,4.564-8.852,3.7-13,1-24.51-24.66-58.97-72.916-71-121-4.65,13.067-14.091,36.191-37,57-3.094,2.81-13.2,4.622-18,2-3.445-3.457-4.076-4.985-5.123-17.444-1.991-8.9-2.92-11.023-5.877-18.556-4.119-10.492-13.374-22.072-20-31-5.615-7.567-13.279-12.747-21-19-3.1-2.506-11.821-9.653-15-12-21.209-15.657-39.379-28.9-55-50-10.392-14.037-21.65-29.966-27-48a84.845,84.845,0,0,1-4-22c-8.332,9.745-27.488,31.124-37,28-4.455-.233-16-18.214-16-47-13.568-6.79-21.358-49.125-17-78,3.48-23.057,12.264-44.094,21-64,11.013-25.094,23.425-48.9,30-79-9.922,1.087-15.014,2.716-29,0-18.871-3.665-42.906-12.692-43-34-0.058-4.858,3.278-9.655,14.011-16.04C153.836,360.547,178.443,335.141,192,316c13.925-19.66,16.681-25.1,18-28-5.622-2.781-8.579-4.04-14-8-15.174-11.083-31.414-31.688-38.938-50.11-5.057-12.384-3.978-29.116-4.062-45.89-0.293-58.753,9.048-85.6,49-100,4.666-.333,10.334-1.667,15-2,36.45-3.1,63.445,6.485,87,23,9.318,6.533,20.837,14.162,31,22,4.359-3.248,9.652-6.118,14-9,11.895-7.884,25.469-17.366,41-21,17.3-4.048,52.7,1.822,65,7,11.772,4.958,24.846,11.7,35,19,3.884,2.792,6.8,5.647,11,9,5.534-5.9,18.746-14.518,25-18,17.128-9.538,56.505-22.213,85-16,12.98,2.83,22.428,8.349,33,15,6.266,3.942,15.754,9.8,21,14,11.03-8.88,33.219-22.73,45-30,10.214-6.3,21.393-12.225,36-14a174.984,174.984,0,0,1,37,0c10.09,1.141,17.8,1.812,26,5,7.487,2.91,13.671,9.11,19,15,4.365,4.824,8.3,11.729,11,18,7.282,16.94,8,34.594,8,58,0,15.419.415,34.51-3,47-6.43,23.512-32.31,52.223-53,62,14.8,30.556,28.609,44.155,52,66,25.286,23.614,31.552,18.752,33,33-0.442,3.548-4.779,13.2-7,16C856.225,419.106,833.934,423.612,804,420ZM257,100c-9.459-.138-45.052-1.66-54.546,1.56C184.265,107.731,178.493,122.315,173,137a86.986,86.986,0,0,0-3,19c-1.232,24.443-5.052,54.674,2,70,4.8,10.432,11.818,18.711,19,28,2.834,3.665,15.784,16.372,25,20,8.458-11.314,6.816-32.57,22-34,2.933,1.741,6.009,4.085,5,10-3.483,10.6-9.026,25.955-15,37-11.082,20.489-22.627,36.664-37,54-6.94,8.371-13.552,14.463-22,23a116.681,116.681,0,0,1-14,12c-4.92,4.213-12.5,7.982-15.975,11.34C144.013,395.181,148.434,399.4,155,402c18.041,7.149,34.153,2.622,51,0a7.719,7.719,0,0,1,8,8c0.083,6.754-2.4,14.394-4,21a166.223,166.223,0,0,1-9,27c-14.49,33.589-31.931,65.517-41,104-4.027,17.089.05,49,7,61,4.681-10.716,8.124-18.632,15-30,13-21.493,31.949-40.145,44-63,2.477-4.7,9.514-19.773,11-31,1.073-3.8,7.269-5.333,10-4,1.892,0.84,3.7,4.473,4,8-0.187,14.554-8.451,27.581-16,41-18.592,33.048-53.135,66.634-58,100-1.906,13.071,3.035,21.606,5,27,7.341-6.507,15.979-13.487,24-24,6.589-8.636,9.021-24.172,19-24,4.425,0.415,6.116,4.7,6,13-0.18,5.991.029,8.008,0,14-0.048,9.766.637,21.622,4,30,14.27,35.552,37,59.172,66,80,6.034,4.334,11.668,9.491,18,14-9.745-20.765-19.23-57.4-11-86,3.283-11.41,4.1-22.918,16-23,4.232,1.114,7.824,6.836,3,14-7.792,10.688-7.446,43.581-3,60,8.929,32.979,24.415,55.4,39,82a167.2,167.2,0,0,1,11.675,25.8c2.656,7.428,3.933,11.622,5.325,15.2a100.068,100.068,0,0,0,12-15c10.9-17.139,18.755-35.476,22-59,0.845-7.154-.667-13.334-1-20,2.694-5.16,4.105-6.2,9-6,4.642,1.657,5.886,3.655,8,14,2.5,13.319,4.2,26.8,8,40,7.316,25.447,18.313,46.639,31,67,6.651,10.673,15.063,25.254,23,34V907c-0.069-6.625.272-22.336,1-30a68.777,68.777,0,0,1,1-9c1.93-3.046,2.531-3.415,8-3,3.539,2.336,3.644,4.239,5,13,0.851,7.458-.255,27.892,0,40,1.786-3.752,14.607-19.43,25-37,15.482-26.172,34.724-72.826,39-110,1.529-6.459,3.065-7.975,10-8,3.248,1.666,5.828,2.888,6,10-1.295,8.772-.027,20.688,1,26,4.145,21.451,17.705,53.18,33,63,3.6-19.546,14.773-39.535,23-52a199.585,199.585,0,0,0,13-23c4.1-8.382,9.462-18.276,12.732-28,4.327-12.875,12.69-45,8.268-63-2.276-9.263-4.014-13.235-7-22-0.6-8.241,8.623-12.429,14-6,15.459,29.348,9.885,76.15-4,106,8.341-5.77,21.872-15.294,44-34a88.26,88.26,0,0,0,11-12c14.422-18.075,24.725-32.418,32-61,3.194-12.548.144-24.76,1-37,0.637-7.286,8.549-9.212,13-4,6.256,9.724,9.174,19.2,17,28,7.156,8.047,12.471,12.641,19,17,9.965-14.933,3.863-40.316-6-57-16.079-27.2-35.693-47.865-51-76-6-11.021-11.724-18.264-12-36,0.713-7,9.352-10.111,13-3,3.01,6.244,3.41,12.015,6,19a99.054,99.054,0,0,0,16,29c30.238,38.785,38.042,50.984,50,76,2.9-10.581,6.883-21.955,8-35,1.621-18.918-7.335-46.709-12-59-6.787-17.88-13.508-32.923-21-50-9.549-21.765-21.946-40.728-23-71,0.216-4.442,5.937-7.943,13-5,20.565,6.506,58.068,2.54,61-17-8.528-4.792-14.82-9.906-22-16-26.637-22.609-46.466-49.169-64-81-6.972-12.657-14.571-27.44-17-42,0.617-7.484,7.85-9.361,13-4,6.077,10.025,8.641,20.928,14,32,3.528-2.534,11.743-8.779,20-16,6.992-6.114,20.226-23.806,24-33,4.052-9.872,4.138-28.762,4-41a223.878,223.878,0,0,0-2-29c-4.16-28.1-10.328-47.844-34-55a255.028,255.028,0,0,0-26-2c-12.516-.421-30.519-0.732-41,5-5.521,3.019-8.949,5.848-14,9-19.022,11.87-36.394,24.085-54,37-11.838,8.683-21.667,19.3-39,25-6.455.608-9.618-6.967-6-12,6.029-3.84,11.018-6.6,17-11a231.105,231.105,0,0,0,18-15c-6.847-3.793-13.646-9.082-20-13-9.573-5.9-35.828-12.9-55-10-17.509,2.651-36.37,9.92-50,18a76.352,76.352,0,0,0-16,12c-3.025,2.936-3.914,8.476-9,9-6.013,1.328-6.72-3.138-12-9-19.169-16.029-27.187-19.829-54-27-9.581-2.562-30.029-5.026-42-2-9.037,2.284-18.809,5.668-27,11-4.857,3.162-11.244,7.818-17,12,7.408,5.072,15.97,11.132,33.569,23.572,8.3,6-.152,14.5-7.569,13.428a102.148,102.148,0,0,1-14-8c-10.163-6.664-16.919-12.744-27-20C305.935,126.8,279.281,104.217,257,100Zm-24,38a17.239,17.239,0,0,1,10,0c17.31,7.552,48.337,38.464,50,62-1.358,8.052-9.112,10.322-14,4-6.047-11.389-12.293-23.328-20-33-5.016-6.294-23.873-14.118-29-21C228.257,143.472,230.01,140.1,233,138Zm522,1a19.485,19.485,0,0,1,12-1c3.18,2.734,6.308,8.175,2,14-13.131,7.582-22.975,11.578-33,24-18.9,23.417-7.292,32.325-24,32-4.769-1.684-5.879-10.044-4-15a67.327,67.327,0,0,1,8-17,133.238,133.238,0,0,1,10-14C734.332,152.069,745.033,146.139,755,139ZM377,320c22.448,0.646,34.151,3.073,45,18,2.388,3.285,5.858,7.706,7,12,1.865,7.013.2,12.867,3,17,7.3,10.79,18.761,17.786,21,34-1.337,4.952-7.246,6.876-13,3-5.071-6.786-11.14-16.884-18-23-17.4,18.239-60.765,8.084-72-9-2.607-3.965-8.322-11.448-8-17-6.039.651-23.6,11.9-32,12-5.012-.2-7.3-8.108-3-13,10.954-6.822,21.053-13.035,33-19,3.874-2.566,6.8-3.67,11-6,4.7-2.239,4.654-2.229,10-5C364.571,322.149,373.011,320.646,377,320Zm281,35c-1.127,17.657-31.026,39.488-55,36-4.24-.617-11.748-1.726-16-4a26.686,26.686,0,0,1-9-7c-2.327,3.074-12.117,15.062-19,24a9.713,9.713,0,0,1-9,2c-2.44-2.4-3.543-3.071-3-10,2.065-5.184,4.506-7.382,7-11,3.842-5.574,9.576-12.479,14-18q0.5-7,1-14c2.872-10.052,12.851-21.958,21-27,9.7-6,34.9-8.246,48.041-2.112,4.264,1.991,9.981,3.906,13.959,6.112,3.686,2.044,8.369,5.518,11,7,3.605,2.031,6.645,3.365,10,5,8.414,4.1,19.8,8.351,22,17-2.008,9.463-6.723,9.045-13,6C675.515,361.435,666.279,359.127,658,355ZM365,341a17.711,17.711,0,0,0-4,9c2.5,14,12.961,20.857,26,24,9.765,2.354,24.831-3.939,27-10,2.014-3.093-3.987-12.961-6-16,3.026,4.247.231,16.721-10,21-4.326,1.339-12.221.849-16.326-1.834A19.651,19.651,0,0,1,374,355c-3.393-11.121,2.861-16.441,7-17C376.9,338.481,369.176,336.414,365,341Zm253-2c7.7,4.451,10.028,10.638,7,19-1.745,4.542-4.242,8.588-9,11-4.295,1.371-11.742.466-15-1-7.109-4.246-10.584-7.629-10-18-2.757,1.415-6.374,14.138-4,18,19.175,13.454,44.24,5.374,51-16,0.678-5.015-.131-7.639-3-11C630.845,337.088,623.768,337.239,618,339ZM452,441c2.411-1.088,5-1.247,7,0,2.752,4.111,4.106,5.209,4,13-1.869,10.32-3.922,18.86-7,27-6.977,18.45-18.873,34.531-24,55-2.58,10.3,3.973,15.408,4,26-2.967,3.4-4.233,5.42-10,4-2.915-2-7.084-6.154-10-15-2.928-8.881-.451-20.28,2-27,6.687-18.333,13.913-33.767,22-50C445.116,463.73,446.17,450.333,452,441Zm89,1c2.051-2,4.853-1.072,7,0,4.488,7.6,4.641,17.261,9,26,9.42,18.885,19.73,37.4,26,59,4.192,14.443,1.187,34.377-9,38a7.987,7.987,0,0,1-7,1c-2.788-2.419-4.11-6.539-2-12,5.637-13.143.556-26.42-3-35-7.5-18.1-13.673-28.654-20-48C538.367,459.893,534.483,452.443,541,442Zm-76,91c4.666,0,10.052-.062,14,1,5.85,1.267,14.291,6,21,8,7.036-1.79,14.215-6.183,21-8a76.2,76.2,0,0,1,21,0c3.686,2.01,5.5,2.327,6,9-1,3.7-3.1,4.621-9,5-7.348.22-26.778,3.829-30,11v37c13.651,8.1,18.063,12.3,35,19,11.589,4.583,34,.94,33,16-3.026,6.7-11.925,5.811-21,4-8.593-2.38-20.138-5.059-30-9a73.834,73.834,0,0,1-26-17c-11.13,14.311-44.458,25.627-72,27-4.432-2.612-4.975-4.065-5-11,3.867-6.273,22.16-6.052,34-10a141.229,141.229,0,0,0,21-9c3.812-2.044,11.28-6.225,13-10V559c-10.368-6.547-18.52-11.144-35.636-11.358-2.47-2.681-3.245-3.062-3.364-8.642a18.121,18.121,0,0,1,6-5A15.717,15.717,0,0,1,465,533Z"/>
</svg>
