<?xml version="1.0" encoding="UTF-8" standalone="no"?>
<!DOCTYPE svg PUBLIC "-//W3C//DTD SVG 1.1//EN"
 "http://www.w3.org/Graphics/SVG/1.1/DTD/svg11.dtd">
<!-- Generated by graphviz version 2.40.1 (20161225.0304)
 -->
<!-- Title: G Pages: 1 -->
<svg width="254pt" height="246pt"
 viewBox="0.00 0.00 254.37 245.84" xmlns="http://www.w3.org/2000/svg" xmlns:xlink="http://www.w3.org/1999/xlink">
<g id="graph0" class="graph" transform="scale(1 1) rotate(0) translate(4 241.8385)">
<title>G</title>
<polygon fill="#ffffff" stroke="transparent" points="-4,4 -4,-241.8385 250.3729,-241.8385 250.3729,4 -4,4"/>
<!-- a0 -->
<g id="node1" class="node">
<title>a0</title>
<ellipse fill="none" stroke="#000000" cx="123.1864" cy="-201.8385" rx="36" ry="36"/>
<text text-anchor="middle" x="123.1864" y="-198.1385" font-family="Segoe UI" font-size="14.00" fill="#000000">env</text>
</g>
<!-- a1 -->
<g id="node2" class="node">
<title>a1</title>
<ellipse fill="none" stroke="#000000" cx="210.3729" cy="-138.4938" rx="36" ry="36"/>
<text text-anchor="middle" x="210.3729" y="-134.7938" font-family="Segoe UI" font-size="14.00" fill="#000000">first_0</text>
</g>
<!-- a0&#45;&gt;a1 -->
<g id="edge1" class="edge">
<title>a0&#45;&gt;a1</title>
<path fill="none" stroke="#000000" d="M152.7038,-180.3929C159.1645,-175.6988 166.0874,-170.6691 172.8147,-165.7814"/>
<polygon fill="#000000" stroke="#000000" points="175.149,-168.4117 181.1819,-159.7023 171.0345,-162.7486 175.149,-168.4117"/>
</g>
<!-- a2 -->
<g id="node3" class="node">
<title>a2</title>
<ellipse fill="none" stroke="#000000" cx="177.0706" cy="-36" rx="36" ry="36"/>
<text text-anchor="middle" x="177.0706" y="-32.3" font-family="Segoe UI" font-size="14.00" fill="#000000">second_0</text>
</g>
<!-- a1&#45;&gt;a2 -->
<g id="edge2" class="edge">
<title>a1&#45;&gt;a2</title>
<path fill="none" stroke="#000000" d="M199.1911,-104.0797C196.6924,-96.3896 194.0089,-88.1306 191.4027,-80.1095"/>
<polygon fill="#000000" stroke="#000000" points="194.6985,-78.9267 188.2796,-70.4977 188.0411,-81.0899 194.6985,-78.9267"/>
</g>
<!-- a3 -->
<g id="node4" class="node">
<title>a3</title>
<ellipse fill="none" stroke="#000000" cx="69.3023" cy="-36" rx="36" ry="36"/>
<text text-anchor="middle" x="69.3023" y="-32.3" font-family="Segoe UI" font-size="14.00" fill="#000000">third_0</text>
</g>
<!-- a2&#45;&gt;a3 -->
<g id="edge3" class="edge">
<title>a2&#45;&gt;a3</title>
<path fill="none" stroke="#000000" d="M140.8855,-36C132.7996,-36 124.1156,-36 115.6817,-36"/>
<polygon fill="#000000" stroke="#000000" points="115.5753,-32.5001 105.5753,-36 115.5753,-39.5001 115.5753,-32.5001"/>
</g>
<!-- a4 -->
<g id="node5" class="node">
<title>a4</title>
<ellipse fill="none" stroke="#000000" cx="36" cy="-138.4938" rx="36" ry="36"/>
<text text-anchor="middle" x="36" y="-134.7938" font-family="Segoe UI" font-size="14.00" fill="#000000">fourth_0</text>
</g>
<!-- a3&#45;&gt;a4 -->
<g id="edge4" class="edge">
<title>a3&#45;&gt;a4</title>
<path fill="none" stroke="#000000" d="M58.1204,-70.4141C55.6218,-78.1042 52.9382,-86.3632 50.332,-94.3843"/>
<polygon fill="#000000" stroke="#000000" points="46.9705,-93.4039 47.209,-103.9961 53.6279,-95.5671 46.9705,-93.4039"/>
</g>
<!-- a4&#45;&gt;a0 -->
<g id="edge5" class="edge">
<title>a4&#45;&gt;a0</title>
<path fill="none" stroke="#000000" d="M65.5173,-159.9394C71.9781,-164.6334 78.901,-169.6632 85.6283,-174.5509"/>
<polygon fill="#000000" stroke="#000000" points="83.848,-177.5837 93.9955,-180.63 87.9626,-171.9205 83.848,-177.5837"/>
</g>
</g>
</svg>
