<?xml version="1.0" encoding="UTF-8" standalone="no"?>
<!DOCTYPE svg PUBLIC "-//W3C//DTD SVG 1.1//EN"
 "http://www.w3.org/Graphics/SVG/1.1/DTD/svg11.dtd">
<!-- Generated by graphviz version 2.40.1 (20161225.0304)
 -->
<!-- Title: G Pages: 1 -->
<svg width="332pt" height="305pt"
 viewBox="0.00 0.00 332.45 305.33" xmlns="http://www.w3.org/2000/svg" xmlns:xlink="http://www.w3.org/1999/xlink">
<g id="graph0" class="graph" transform="scale(1 1) rotate(0) translate(4 301.3251)">
<title>G</title>
<polygon fill="#ffffff" stroke="transparent" points="-4,4 -4,-301.3251 328.448,-301.3251 328.448,4 -4,4"/>
<!-- a0 -->
<g id="node1" class="node">
<title>a0</title>
<ellipse fill="none" stroke="#000000" cx="162.224" cy="-236.3251" rx="61" ry="61"/>
<text text-anchor="middle" x="162.224" y="-232.6251" font-family="Segoe UI" font-size="14.00" fill="#000000">env</text>
</g>
<!-- a1 -->
<g id="node2" class="node">
<title>a1</title>
<ellipse fill="none" stroke="#000000" cx="263.448" cy="-61" rx="61" ry="61"/>
<text text-anchor="middle" x="263.448" y="-57.3" font-family="Segoe UI" font-size="14.00" fill="#000000">piston_0</text>
</g>
<!-- a0&#45;&gt;a1 -->
<g id="edge1" class="edge">
<title>a0&#45;&gt;a1</title>
<path fill="none" stroke="#000000" d="M192.8692,-183.246C203.8697,-164.1926 216.3689,-142.5434 227.7603,-122.8128"/>
<polygon fill="#000000" stroke="#000000" points="230.9379,-124.309 232.9069,-113.8987 224.8758,-120.8089 230.9379,-124.309"/>
</g>
<!-- a2 -->
<g id="node3" class="node">
<title>a2</title>
<ellipse fill="none" stroke="#000000" cx="61" cy="-61" rx="61" ry="61"/>
<text text-anchor="middle" x="61" y="-57.3" font-family="Segoe UI" font-size="14.00" fill="#000000">piston_[1...19]</text>
</g>
<!-- a1&#45;&gt;a2 -->
<g id="edge2" class="edge">
<title>a1&#45;&gt;a2</title>
<path fill="none" stroke="#000000" d="M202.4324,-61C180.3235,-61 155.1589,-61 132.2466,-61"/>
<polygon fill="#000000" stroke="#000000" points="132.24,-57.5001 122.24,-61 132.2399,-64.5001 132.24,-57.5001"/>
</g>
<!-- a2&#45;&gt;a0 -->
<g id="edge3" class="edge">
<title>a2&#45;&gt;a0</title>
<path fill="none" stroke="#000000" d="M91.6452,-114.0791C102.6457,-133.1325 115.1449,-154.7817 126.5363,-174.5122"/>
<polygon fill="#000000" stroke="#000000" points="123.6518,-176.5161 131.6829,-183.4264 129.714,-173.0161 123.6518,-176.5161"/>
</g>
</g>
</svg>
