<?xml version="1.0" encoding="UTF-8" standalone="no"?>
<!DOCTYPE svg PUBLIC "-//W3C//DTD SVG 1.1//EN"
 "http://www.w3.org/Graphics/SVG/1.1/DTD/svg11.dtd">
<!-- Generated by graphviz version 2.40.1 (20161225.0304)
 -->
<!-- Title: G Pages: 1 -->
<svg width="520pt" height="520pt"
 viewBox="0.00 0.00 519.70 519.70" xmlns="http://www.w3.org/2000/svg" xmlns:xlink="http://www.w3.org/1999/xlink">
<g id="graph0" class="graph" transform="scale(1 1) rotate(0) translate(4 515.6961)">
<title>G</title>
<polygon fill="#ffffff" stroke="transparent" points="-4,4 -4,-515.6961 515.6961,-515.6961 515.6961,4 -4,4"/>
<!-- a0 -->
<g id="node1" class="node">
<title>a0</title>
<ellipse fill="none" stroke="#000000" cx="255.8481" cy="-461.1961" rx="50.5" ry="50.5"/>
<text text-anchor="middle" x="255.8481" y="-457.4961" font-family="Segoe UI" font-size="14.00" fill="#000000">env</text>
</g>
<!-- a1 -->
<g id="node2" class="node">
<title>a1</title>
<ellipse fill="none" stroke="#000000" cx="401.0511" cy="-401.0511" rx="50.5" ry="50.5"/>
<text text-anchor="middle" x="401.0511" y="-397.3511" font-family="Segoe UI" font-size="14.00" fill="#000000">prospector_0</text>
</g>
<!-- a0&#45;&gt;a1 -->
<g id="edge1" class="edge">
<title>a0&#45;&gt;a1</title>
<path fill="none" stroke="#000000" d="M302.5905,-441.8348C315.9279,-436.3103 330.6045,-430.231 344.4621,-424.491"/>
<polygon fill="#000000" stroke="#000000" points="345.999,-427.6428 353.8984,-420.5824 343.3202,-421.1757 345.999,-427.6428"/>
</g>
<!-- a2 -->
<g id="node3" class="node">
<title>a2</title>
<ellipse fill="none" stroke="#000000" cx="461.1961" cy="-255.8481" rx="50.5" ry="50.5"/>
<text text-anchor="middle" x="461.1961" y="-252.1481" font-family="Segoe UI" font-size="14.00" fill="#000000">prospector_1</text>
</g>
<!-- a1&#45;&gt;a2 -->
<g id="edge2" class="edge">
<title>a1&#45;&gt;a2</title>
<path fill="none" stroke="#000000" d="M420.4124,-354.3087C425.9369,-340.9713 432.0162,-326.2946 437.7562,-312.4371"/>
<polygon fill="#000000" stroke="#000000" points="441.0716,-313.5789 441.6649,-303.0007 434.6044,-310.9001 441.0716,-313.5789"/>
</g>
<!-- a3 -->
<g id="node4" class="node">
<title>a3</title>
<ellipse fill="none" stroke="#000000" cx="401.0511" cy="-110.645" rx="50.5" ry="50.5"/>
<text text-anchor="middle" x="401.0511" y="-106.945" font-family="Segoe UI" font-size="14.00" fill="#000000">prospector_2</text>
</g>
<!-- a2&#45;&gt;a3 -->
<g id="edge3" class="edge">
<title>a2&#45;&gt;a3</title>
<path fill="none" stroke="#000000" d="M441.8348,-209.1057C436.3103,-195.7683 430.231,-181.0916 424.491,-167.234"/>
<polygon fill="#000000" stroke="#000000" points="427.6428,-165.6971 420.5824,-157.7977 421.1757,-168.3759 427.6428,-165.6971"/>
</g>
<!-- a4 -->
<g id="node5" class="node">
<title>a4</title>
<ellipse fill="none" stroke="#000000" cx="255.8481" cy="-50.5" rx="50.5" ry="50.5"/>
<text text-anchor="middle" x="255.8481" y="-46.8" font-family="Segoe UI" font-size="14.00" fill="#000000">prospector_3</text>
</g>
<!-- a3&#45;&gt;a4 -->
<g id="edge4" class="edge">
<title>a3&#45;&gt;a4</title>
<path fill="none" stroke="#000000" d="M354.3087,-91.2837C340.9713,-85.7592 326.2946,-79.6799 312.4371,-73.9399"/>
<polygon fill="#000000" stroke="#000000" points="313.5789,-70.6246 303.0007,-70.0313 310.9001,-77.0917 313.5789,-70.6246"/>
</g>
<!-- a5 -->
<g id="node6" class="node">
<title>a5</title>
<ellipse fill="none" stroke="#000000" cx="110.645" cy="-110.645" rx="50.5" ry="50.5"/>
<text text-anchor="middle" x="110.645" y="-106.945" font-family="Segoe UI" font-size="14.00" fill="#000000">banker_0</text>
</g>
<!-- a4&#45;&gt;a5 -->
<g id="edge5" class="edge">
<title>a4&#45;&gt;a5</title>
<path fill="none" stroke="#000000" d="M209.1057,-69.8613C195.7683,-75.3859 181.0916,-81.4651 167.234,-87.2051"/>
<polygon fill="#000000" stroke="#000000" points="165.6971,-84.0533 157.7977,-91.1138 168.3759,-90.5205 165.6971,-84.0533"/>
</g>
<!-- a6 -->
<g id="node7" class="node">
<title>a6</title>
<ellipse fill="none" stroke="#000000" cx="50.5" cy="-255.8481" rx="50.5" ry="50.5"/>
<text text-anchor="middle" x="50.5" y="-252.1481" font-family="Segoe UI" font-size="14.00" fill="#000000">banker_1</text>
</g>
<!-- a5&#45;&gt;a6 -->
<g id="edge6" class="edge">
<title>a5&#45;&gt;a6</title>
<path fill="none" stroke="#000000" d="M91.2837,-157.3875C85.7592,-170.7248 79.6799,-185.4015 73.9399,-199.2591"/>
<polygon fill="#000000" stroke="#000000" points="70.6246,-198.1172 70.0313,-208.6954 77.0917,-200.796 70.6246,-198.1172"/>
</g>
<!-- a7 -->
<g id="node8" class="node">
<title>a7</title>
<ellipse fill="none" stroke="#000000" cx="110.645" cy="-401.0511" rx="50.5" ry="50.5"/>
<text text-anchor="middle" x="110.645" y="-397.3511" font-family="Segoe UI" font-size="14.00" fill="#000000">banker_2</text>
</g>
<!-- a6&#45;&gt;a7 -->
<g id="edge7" class="edge">
<title>a6&#45;&gt;a7</title>
<path fill="none" stroke="#000000" d="M69.8613,-302.5905C75.3859,-315.9279 81.4651,-330.6045 87.2051,-344.4621"/>
<polygon fill="#000000" stroke="#000000" points="84.0533,-345.999 91.1138,-353.8984 90.5205,-343.3202 84.0533,-345.999"/>
</g>
<!-- a7&#45;&gt;a0 -->
<g id="edge8" class="edge">
<title>a7&#45;&gt;a0</title>
<path fill="none" stroke="#000000" d="M157.3875,-420.4124C170.7248,-425.9369 185.4015,-432.0162 199.2591,-437.7562"/>
<polygon fill="#000000" stroke="#000000" points="198.1172,-441.0716 208.6954,-441.6649 200.796,-434.6044 198.1172,-441.0716"/>
</g>
</g>
</svg>
