<?xml version="1.0" encoding="UTF-8" standalone="no"?>
<!DOCTYPE svg PUBLIC "-//W3C//DTD SVG 1.1//EN"
 "http://www.w3.org/Graphics/SVG/1.1/DTD/svg11.dtd">
<!-- Generated by graphviz version 2.40.1 (20161225.0304)
 -->
<!-- Title: G Pages: 1 -->
<svg width="130pt" height="286pt"
 viewBox="0.00 0.00 130.00 285.84" xmlns="http://www.w3.org/2000/svg" xmlns:xlink="http://www.w3.org/1999/xlink">
<g id="graph0" class="graph" transform="scale(1 1) rotate(0) translate(4 281.8445)">
<title>G</title>
<polygon fill="#ffffff" stroke="transparent" points="-4,4 -4,-281.8445 126,-281.8445 126,4 -4,4"/>
<!-- a0 -->
<g id="node1" class="node">
<title>a0</title>
<ellipse fill="none" stroke="#000000" cx="61" cy="-216.8445" rx="61" ry="61"/>
<text text-anchor="middle" x="61" y="-213.1445" font-family="Times,serif" font-size="14.00" fill="#000000">env</text>
</g>
<!-- a1 -->
<g id="node2" class="node">
<title>a1</title>
<ellipse fill="none" stroke="#000000" cx="61" cy="-61" rx="61" ry="61"/>
<text text-anchor="middle" x="61" y="-57.3" font-family="Times,serif" font-size="14.00" fill="#000000">piston_[0...19]</text>
</g>
<!-- a0&#45;&gt;a1 -->
<g id="edge1" class="edge">
<title>a0&#45;&gt;a1</title>
<path fill="none" stroke="#000000" d="M67.6013,-156.1447C67.7403,-148.2124 67.7819,-140.0295 67.7259,-131.9474"/>
<polygon fill="#000000" stroke="#000000" points="71.2238,-131.7474 67.6029,-121.7905 64.2244,-131.8322 71.2238,-131.7474"/>
</g>
<!-- a1&#45;&gt;a0 -->
<g id="edge2" class="edge">
<title>a1&#45;&gt;a0</title>
<path fill="none" stroke="#000000" d="M54.3987,-121.6998C54.2597,-129.6321 54.2181,-137.8151 54.2741,-145.8971"/>
<polygon fill="#000000" stroke="#000000" points="50.7762,-146.0972 54.3971,-156.054 57.7756,-146.0123 50.7762,-146.0972"/>
</g>
</g>
</svg>
