<?xml version="1.0" encoding="UTF-8" standalone="no"?>
<!DOCTYPE svg PUBLIC "-//W3C//DTD SVG 1.1//EN"
 "http://www.w3.org/Graphics/SVG/1.1/DTD/svg11.dtd">
<!-- Generated by graphviz version 2.40.1 (20161225.0304)
 -->
<!-- Title: G Pages: 1 -->
<svg width="227pt" height="227pt"
 viewBox="0.00 0.00 226.68 226.68" xmlns="http://www.w3.org/2000/svg" xmlns:xlink="http://www.w3.org/1999/xlink">
<g id="graph0" class="graph" transform="scale(1 1) rotate(0) translate(4 222.6772)">
<title>G</title>
<polygon fill="#ffffff" stroke="transparent" points="-4,4 -4,-222.6772 222.6772,-222.6772 222.6772,4 -4,4"/>
<!-- a0 -->
<g id="node1" class="node">
<title>a0</title>
<ellipse fill="none" stroke="#000000" cx="109.3386" cy="-182.6772" rx="36" ry="36"/>
<text text-anchor="middle" x="109.3386" y="-178.9772" font-family="Segoe UI" font-size="14.00" fill="#000000">env</text>
</g>
<!-- a1 -->
<g id="node2" class="node">
<title>a1</title>
<ellipse fill="none" stroke="#000000" cx="182.6772" cy="-109.3386" rx="36" ry="36"/>
<text text-anchor="middle" x="182.6772" y="-105.6386" font-family="Segoe UI" font-size="14.00" fill="#000000">player_0</text>
</g>
<!-- a0&#45;&gt;a1 -->
<g id="edge1" class="edge">
<title>a0&#45;&gt;a1</title>
<path fill="none" stroke="#000000" d="M134.9889,-157.0269C139.7623,-152.2535 144.8104,-147.2054 149.7659,-142.2499"/>
<polygon fill="#000000" stroke="#000000" points="152.3212,-144.6443 156.9174,-135.0984 147.3715,-139.6946 152.3212,-144.6443"/>
</g>
<!-- a2 -->
<g id="node3" class="node">
<title>a2</title>
<ellipse fill="none" stroke="#000000" cx="109.3386" cy="-36" rx="36" ry="36"/>
<text text-anchor="middle" x="109.3386" y="-32.3" font-family="Segoe UI" font-size="14.00" fill="#000000">env</text>
</g>
<!-- a1&#45;&gt;a2 -->
<g id="edge2" class="edge">
<title>a1&#45;&gt;a2</title>
<path fill="none" stroke="#000000" d="M157.0269,-83.6883C152.2535,-78.9149 147.2054,-73.8668 142.2499,-68.9113"/>
<polygon fill="#000000" stroke="#000000" points="144.6443,-66.356 135.0984,-61.7598 139.6946,-71.3057 144.6443,-66.356"/>
</g>
<!-- a3 -->
<g id="node4" class="node">
<title>a3</title>
<ellipse fill="none" stroke="#000000" cx="36" cy="-109.3386" rx="36" ry="36"/>
<text text-anchor="middle" x="36" y="-105.6386" font-family="Segoe UI" font-size="14.00" fill="#000000">player_1</text>
</g>
<!-- a2&#45;&gt;a3 -->
<g id="edge3" class="edge">
<title>a2&#45;&gt;a3</title>
<path fill="none" stroke="#000000" d="M83.6883,-61.6503C78.9149,-66.4237 73.8668,-71.4718 68.9113,-76.4273"/>
<polygon fill="#000000" stroke="#000000" points="66.356,-74.0329 61.7598,-83.5788 71.3057,-78.9826 66.356,-74.0329"/>
</g>
<!-- a3&#45;&gt;a0 -->
<g id="edge4" class="edge">
<title>a3&#45;&gt;a0</title>
<path fill="none" stroke="#000000" d="M61.6503,-134.9889C66.4237,-139.7623 71.4718,-144.8104 76.4273,-149.7659"/>
<polygon fill="#000000" stroke="#000000" points="74.0329,-152.3212 83.5788,-156.9174 78.9826,-147.3715 74.0329,-152.3212"/>
</g>
</g>
</svg>
