<?xml version="1.0" encoding="UTF-8" standalone="no"?>
<!DOCTYPE svg PUBLIC "-//W3C//DTD SVG 1.1//EN"
 "http://www.w3.org/Graphics/SVG/1.1/DTD/svg11.dtd">
<!-- Generated by graphviz version 2.40.1 (20161225.0304)
 -->
<!-- Title: G Pages: 1 -->
<svg width="373pt" height="373pt"
 viewBox="0.00 0.00 373.35 373.35" xmlns="http://www.w3.org/2000/svg" xmlns:xlink="http://www.w3.org/1999/xlink">
<g id="graph0" class="graph" transform="scale(1 1) rotate(0) translate(4 369.3544)">
<title>G</title>
<polygon fill="#ffffff" stroke="transparent" points="-4,4 -4,-369.3544 369.3544,-369.3544 369.3544,4 -4,4"/>
<!-- a0 -->
<g id="node1" class="node">
<title>a0</title>
<ellipse fill="none" stroke="#000000" cx="182.6772" cy="-329.3544" rx="36" ry="36"/>
<text text-anchor="middle" x="182.6772" y="-325.6544" font-family="Segoe UI" font-size="14.00" fill="#000000">env</text>
</g>
<!-- a1 -->
<g id="node2" class="node">
<title>a1</title>
<ellipse fill="none" stroke="#000000" cx="286.3936" cy="-286.3936" rx="36" ry="36"/>
<text text-anchor="middle" x="286.3936" y="-282.6936" font-family="Segoe UI" font-size="14.00" fill="#000000">player_0</text>
</g>
<!-- a0&#45;&gt;a1 -->
<g id="edge1" class="edge">
<title>a0&#45;&gt;a1</title>
<path fill="none" stroke="#000000" d="M216.0646,-315.5249C224.8548,-311.8839 234.4594,-307.9055 243.6674,-304.0914"/>
<polygon fill="#000000" stroke="#000000" points="245.1694,-307.2577 253.0688,-300.1973 242.4905,-300.7906 245.1694,-307.2577"/>
</g>
<!-- a2 -->
<g id="node3" class="node">
<title>a2</title>
<ellipse fill="none" stroke="#000000" cx="329.3544" cy="-182.6772" rx="36" ry="36"/>
<text text-anchor="middle" x="329.3544" y="-178.9772" font-family="Segoe UI" font-size="14.00" fill="#000000">env</text>
</g>
<!-- a1&#45;&gt;a2 -->
<g id="edge2" class="edge">
<title>a1&#45;&gt;a2</title>
<path fill="none" stroke="#000000" d="M300.2232,-253.0062C303.8642,-244.216 307.8425,-234.6114 311.6566,-225.4034"/>
<polygon fill="#000000" stroke="#000000" points="314.9575,-226.5803 315.5508,-216.0021 308.4903,-223.9015 314.9575,-226.5803"/>
</g>
<!-- a3 -->
<g id="node4" class="node">
<title>a3</title>
<ellipse fill="none" stroke="#000000" cx="286.3936" cy="-78.9608" rx="36" ry="36"/>
<text text-anchor="middle" x="286.3936" y="-75.2608" font-family="Segoe UI" font-size="14.00" fill="#000000">player_1</text>
</g>
<!-- a2&#45;&gt;a3 -->
<g id="edge3" class="edge">
<title>a2&#45;&gt;a3</title>
<path fill="none" stroke="#000000" d="M315.5249,-149.2898C311.8839,-140.4996 307.9055,-130.895 304.0914,-121.687"/>
<polygon fill="#000000" stroke="#000000" points="307.2577,-120.185 300.1973,-112.2856 300.7906,-122.8639 307.2577,-120.185"/>
</g>
<!-- a4 -->
<g id="node5" class="node">
<title>a4</title>
<ellipse fill="none" stroke="#000000" cx="182.6772" cy="-36" rx="36" ry="36"/>
<text text-anchor="middle" x="182.6772" y="-32.3" font-family="Segoe UI" font-size="14.00" fill="#000000">env</text>
</g>
<!-- a3&#45;&gt;a4 -->
<g id="edge4" class="edge">
<title>a3&#45;&gt;a4</title>
<path fill="none" stroke="#000000" d="M253.0062,-65.1312C244.216,-61.4902 234.6114,-57.5119 225.4034,-53.6978"/>
<polygon fill="#000000" stroke="#000000" points="226.5803,-50.3969 216.0021,-49.8036 223.9015,-56.8641 226.5803,-50.3969"/>
</g>
<!-- a5 -->
<g id="node6" class="node">
<title>a5</title>
<ellipse fill="none" stroke="#000000" cx="78.9608" cy="-78.9608" rx="36" ry="36"/>
<text text-anchor="middle" x="78.9608" y="-75.2608" font-family="Segoe UI" font-size="14.00" fill="#000000">player_2</text>
</g>
<!-- a4&#45;&gt;a5 -->
<g id="edge5" class="edge">
<title>a4&#45;&gt;a5</title>
<path fill="none" stroke="#000000" d="M149.2898,-49.8295C140.4996,-53.4705 130.895,-57.4489 121.687,-61.263"/>
<polygon fill="#000000" stroke="#000000" points="120.185,-58.0967 112.2856,-65.1571 122.8639,-64.5638 120.185,-58.0967"/>
</g>
<!-- a6 -->
<g id="node7" class="node">
<title>a6</title>
<ellipse fill="none" stroke="#000000" cx="36" cy="-182.6772" rx="36" ry="36"/>
<text text-anchor="middle" x="36" y="-178.9772" font-family="Segoe UI" font-size="14.00" fill="#000000">env</text>
</g>
<!-- a5&#45;&gt;a6 -->
<g id="edge6" class="edge">
<title>a5&#45;&gt;a6</title>
<path fill="none" stroke="#000000" d="M65.1312,-112.3482C61.4902,-121.1384 57.5119,-130.743 53.6978,-139.951"/>
<polygon fill="#000000" stroke="#000000" points="50.3969,-138.7741 49.8036,-149.3523 56.8641,-141.4529 50.3969,-138.7741"/>
</g>
<!-- a7 -->
<g id="node8" class="node">
<title>a7</title>
<ellipse fill="none" stroke="#000000" cx="78.9608" cy="-286.3936" rx="36" ry="36"/>
<text text-anchor="middle" x="78.9608" y="-282.6936" font-family="Segoe UI" font-size="14.00" fill="#000000">player_3</text>
</g>
<!-- a6&#45;&gt;a7 -->
<g id="edge7" class="edge">
<title>a6&#45;&gt;a7</title>
<path fill="none" stroke="#000000" d="M49.8295,-216.0646C53.4705,-224.8548 57.4489,-234.4594 61.263,-243.6674"/>
<polygon fill="#000000" stroke="#000000" points="58.0967,-245.1694 65.1571,-253.0688 64.5638,-242.4905 58.0967,-245.1694"/>
</g>
<!-- a7&#45;&gt;a0 -->
<g id="edge8" class="edge">
<title>a7&#45;&gt;a0</title>
<path fill="none" stroke="#000000" d="M112.3482,-300.2232C121.1384,-303.8642 130.743,-307.8425 139.951,-311.6566"/>
<polygon fill="#000000" stroke="#000000" points="138.7741,-314.9575 149.3523,-315.5508 141.4529,-308.4903 138.7741,-314.9575"/>
</g>
</g>
</svg>
