<?xml version="1.0" encoding="UTF-8" standalone="no"?>
<!DOCTYPE svg PUBLIC "-//W3C//DTD SVG 1.1//EN"
 "http://www.w3.org/Graphics/SVG/1.1/DTD/svg11.dtd">
<!-- Generated by graphviz version 2.40.1 (20161225.0304)
 -->
<!-- Title: G Pages: 1 -->
<svg width="323pt" height="358pt"
 viewBox="0.00 0.00 322.65 358.02" xmlns="http://www.w3.org/2000/svg" xmlns:xlink="http://www.w3.org/1999/xlink">
<g id="graph0" class="graph" transform="scale(1 1) rotate(0) translate(4 354.019)">
<title>G</title>
<polygon fill="#ffffff" stroke="transparent" points="-4,4 -4,-354.019 318.6471,-354.019 318.6471,4 -4,4"/>
<!-- a0 -->
<g id="node1" class="node">
<title>a0</title>
<ellipse fill="none" stroke="#000000" cx="157.3236" cy="-307.019" rx="43" ry="43"/>
<text text-anchor="middle" x="157.3236" y="-303.319" font-family="Segoe UI" font-size="14.00" fill="#000000">env</text>
</g>
<!-- a1 -->
<g id="node2" class="node">
<title>a1</title>
<ellipse fill="none" stroke="#000000" cx="271.6471" cy="-241.0142" rx="43" ry="43"/>
<text text-anchor="middle" x="271.6471" y="-237.3142" font-family="Segoe UI" font-size="14.00" fill="#000000">landlord_0</text>
</g>
<!-- a0&#45;&gt;a1 -->
<g id="edge1" class="edge">
<title>a0&#45;&gt;a1</title>
<path fill="none" stroke="#000000" d="M194.7574,-285.4065C204.5285,-279.7652 215.1761,-273.6178 225.3474,-267.7454"/>
<polygon fill="#000000" stroke="#000000" points="227.219,-270.7063 234.1292,-262.6752 223.7189,-264.6441 227.219,-270.7063"/>
</g>
<!-- a2 -->
<g id="node3" class="node">
<title>a2</title>
<ellipse fill="none" stroke="#000000" cx="271.6471" cy="-109.0047" rx="43" ry="43"/>
<text text-anchor="middle" x="271.6471" y="-105.3047" font-family="Segoe UI" font-size="14.00" fill="#000000">env</text>
</g>
<!-- a1&#45;&gt;a2 -->
<g id="edge2" class="edge">
<title>a1&#45;&gt;a2</title>
<path fill="none" stroke="#000000" d="M271.6471,-197.7894C271.6471,-186.5067 271.6471,-174.2118 271.6471,-162.467"/>
<polygon fill="#000000" stroke="#000000" points="275.1472,-162.3267 271.6471,-152.3267 268.1472,-162.3267 275.1472,-162.3267"/>
</g>
<!-- a3 -->
<g id="node4" class="node">
<title>a3</title>
<ellipse fill="none" stroke="#000000" cx="157.3236" cy="-43" rx="43" ry="43"/>
<text text-anchor="middle" x="157.3236" y="-39.3" font-family="Segoe UI" font-size="14.00" fill="#000000">peasant_0</text>
</g>
<!-- a2&#45;&gt;a3 -->
<g id="edge3" class="edge">
<title>a2&#45;&gt;a3</title>
<path fill="none" stroke="#000000" d="M234.2133,-87.3923C224.4422,-81.751 213.7945,-75.6035 203.6232,-69.7311"/>
<polygon fill="#000000" stroke="#000000" points="205.2518,-66.6299 194.8415,-64.661 201.7517,-72.6921 205.2518,-66.6299"/>
</g>
<!-- a4 -->
<g id="node5" class="node">
<title>a4</title>
<ellipse fill="none" stroke="#000000" cx="43" cy="-109.0047" rx="43" ry="43"/>
<text text-anchor="middle" x="43" y="-105.3047" font-family="Segoe UI" font-size="14.00" fill="#000000">env</text>
</g>
<!-- a3&#45;&gt;a4 -->
<g id="edge4" class="edge">
<title>a3&#45;&gt;a4</title>
<path fill="none" stroke="#000000" d="M119.8897,-64.6124C110.1187,-70.2538 99.471,-76.4012 89.2997,-82.2736"/>
<polygon fill="#000000" stroke="#000000" points="87.4282,-79.3126 80.5179,-87.3438 90.9282,-85.3748 87.4282,-79.3126"/>
</g>
<!-- a5 -->
<g id="node6" class="node">
<title>a5</title>
<ellipse fill="none" stroke="#000000" cx="43" cy="-241.0142" rx="43" ry="43"/>
<text text-anchor="middle" x="43" y="-237.3142" font-family="Segoe UI" font-size="14.00" fill="#000000">peasant_1</text>
</g>
<!-- a4&#45;&gt;a5 -->
<g id="edge5" class="edge">
<title>a4&#45;&gt;a5</title>
<path fill="none" stroke="#000000" d="M43,-152.2296C43,-163.5123 43,-175.8071 43,-187.5519"/>
<polygon fill="#000000" stroke="#000000" points="39.5001,-187.6922 43,-197.6923 46.5001,-187.6923 39.5001,-187.6922"/>
</g>
<!-- a5&#45;&gt;a0 -->
<g id="edge6" class="edge">
<title>a5&#45;&gt;a0</title>
<path fill="none" stroke="#000000" d="M80.4338,-262.6266C90.2049,-268.268 100.8526,-274.4154 111.0239,-280.2878"/>
<polygon fill="#000000" stroke="#000000" points="109.3954,-283.389 119.8056,-285.358 112.8954,-277.3268 109.3954,-283.389"/>
</g>
</g>
</svg>
