<?xml version="1.0" encoding="UTF-8" standalone="no"?>
<!DOCTYPE svg PUBLIC "-//W3C//DTD SVG 1.1//EN"
 "http://www.w3.org/Graphics/SVG/1.1/DTD/svg11.dtd">
<!-- Generated by graphviz version 2.40.1 (20161225.0304)
 -->
<!-- Title: G Pages: 1 -->
<svg width="293pt" height="293pt"
 viewBox="0.00 0.00 292.68 292.68" xmlns="http://www.w3.org/2000/svg" xmlns:xlink="http://www.w3.org/1999/xlink">
<g id="graph0" class="graph" transform="scale(1 1) rotate(0) translate(4 288.6804)">
<title>G</title>
<polygon fill="#ffffff" stroke="transparent" points="-4,4 -4,-288.6804 288.6804,-288.6804 288.6804,4 -4,4"/>
<!-- a0 -->
<g id="node1" class="node">
<title>a0</title>
<ellipse fill="none" stroke="#000000" cx="142.3402" cy="-237.6804" rx="47" ry="47"/>
<text text-anchor="middle" x="142.3402" y="-233.9804" font-family="Segoe UI" font-size="14.00" fill="#000000">env</text>
</g>
<!-- a1 -->
<g id="node2" class="node">
<title>a1</title>
<ellipse fill="none" stroke="#000000" cx="237.6804" cy="-142.3402" rx="47" ry="47"/>
<text text-anchor="middle" x="237.6804" y="-138.6402" font-family="Segoe UI" font-size="14.00" fill="#000000">adversary_0</text>
</g>
<!-- a0&#45;&gt;a1 -->
<g id="edge1" class="edge">
<title>a0&#45;&gt;a1</title>
<path fill="none" stroke="#000000" d="M175.6855,-204.335C182.4683,-197.5523 189.6775,-190.343 196.69,-183.3305"/>
<polygon fill="#000000" stroke="#000000" points="199.5965,-185.3739 204.1927,-175.8279 194.6467,-180.4241 199.5965,-185.3739"/>
</g>
<!-- a2 -->
<g id="node3" class="node">
<title>a2</title>
<ellipse fill="none" stroke="#000000" cx="142.3402" cy="-47" rx="47" ry="47"/>
<text text-anchor="middle" x="142.3402" y="-43.3" font-family="Segoe UI" font-size="14.00" fill="#000000">agent_0</text>
</g>
<!-- a1&#45;&gt;a2 -->
<g id="edge2" class="edge">
<title>a1&#45;&gt;a2</title>
<path fill="none" stroke="#000000" d="M204.335,-108.9948C197.5523,-102.2121 190.343,-95.0028 183.3305,-87.9903"/>
<polygon fill="#000000" stroke="#000000" points="185.3739,-85.0839 175.8279,-80.4877 180.4241,-90.0337 185.3739,-85.0839"/>
</g>
<!-- a3 -->
<g id="node4" class="node">
<title>a3</title>
<ellipse fill="none" stroke="#000000" cx="47" cy="-142.3402" rx="47" ry="47"/>
<text text-anchor="middle" x="47" y="-138.6402" font-family="Segoe UI" font-size="14.00" fill="#000000">agent_1</text>
</g>
<!-- a2&#45;&gt;a3 -->
<g id="edge3" class="edge">
<title>a2&#45;&gt;a3</title>
<path fill="none" stroke="#000000" d="M108.9948,-80.3454C102.2121,-87.1281 95.0028,-94.3373 87.9903,-101.3499"/>
<polygon fill="#000000" stroke="#000000" points="85.0839,-99.3065 80.4877,-108.8525 90.0337,-104.2563 85.0839,-99.3065"/>
</g>
<!-- a3&#45;&gt;a0 -->
<g id="edge4" class="edge">
<title>a3&#45;&gt;a0</title>
<path fill="none" stroke="#000000" d="M80.3454,-175.6855C87.1281,-182.4683 94.3373,-189.6775 101.3499,-196.69"/>
<polygon fill="#000000" stroke="#000000" points="99.3065,-199.5965 108.8525,-204.1927 104.2563,-194.6467 99.3065,-199.5965"/>
</g>
</g>
</svg>
