<?xml version="1.0" encoding="UTF-8" standalone="no"?>
<!DOCTYPE svg PUBLIC "-//W3C//DTD SVG 1.1//EN"
 "http://www.w3.org/Graphics/SVG/1.1/DTD/svg11.dtd">
<!-- Generated by graphviz version 2.40.1 (20161225.0304)
 -->
<!-- Title: G Pages: 1 -->
<svg width="329pt" height="318pt"
 viewBox="0.00 0.00 328.68 317.59" xmlns="http://www.w3.org/2000/svg" xmlns:xlink="http://www.w3.org/1999/xlink">
<g id="graph0" class="graph" transform="scale(1 1) rotate(0) translate(4 313.59)">
<title>G</title>
<polygon fill="#ffffff" stroke="transparent" points="-4,4 -4,-313.59 324.6847,-313.59 324.6847,4 -4,4"/>
<!-- a0 -->
<g id="node1" class="node">
<title>a0</title>
<ellipse fill="none" stroke="#000000" cx="160.3424" cy="-262.59" rx="47" ry="47"/>
<text text-anchor="middle" x="160.3424" y="-258.89" font-family="Segoe UI" font-size="14.00" fill="#000000">env</text>
</g>
<!-- a1 -->
<g id="node2" class="node">
<title>a1</title>
<ellipse fill="none" stroke="#000000" cx="273.6847" cy="-180.2419" rx="47" ry="47"/>
<text text-anchor="middle" x="273.6847" y="-176.5419" font-family="Segoe UI" font-size="14.00" fill="#000000">adversary_0</text>
</g>
<!-- a0&#45;&gt;a1 -->
<g id="edge1" class="edge">
<title>a0&#45;&gt;a1</title>
<path fill="none" stroke="#000000" d="M198.399,-234.9402C207.6508,-228.2184 217.6471,-220.9557 227.2391,-213.9867"/>
<polygon fill="#000000" stroke="#000000" points="229.5027,-216.6684 235.5356,-207.9589 225.3881,-211.0053 229.5027,-216.6684"/>
</g>
<!-- a2 -->
<g id="node3" class="node">
<title>a2</title>
<ellipse fill="none" stroke="#000000" cx="230.3918" cy="-47" rx="47" ry="47"/>
<text text-anchor="middle" x="230.3918" y="-43.3" font-family="Segoe UI" font-size="14.00" fill="#000000">adversary_1</text>
</g>
<!-- a1&#45;&gt;a2 -->
<g id="edge2" class="edge">
<title>a1&#45;&gt;a2</title>
<path fill="none" stroke="#000000" d="M259.1484,-135.5036C255.6145,-124.6276 251.7963,-112.8762 248.1325,-101.6001"/>
<polygon fill="#000000" stroke="#000000" points="251.3824,-100.276 244.9635,-91.847 244.725,-102.4392 251.3824,-100.276"/>
</g>
<!-- a3 -->
<g id="node4" class="node">
<title>a3</title>
<ellipse fill="none" stroke="#000000" cx="90.2929" cy="-47" rx="47" ry="47"/>
<text text-anchor="middle" x="90.2929" y="-43.3" font-family="Segoe UI" font-size="14.00" fill="#000000">adversary_2</text>
</g>
<!-- a2&#45;&gt;a3 -->
<g id="edge3" class="edge">
<title>a2&#45;&gt;a3</title>
<path fill="none" stroke="#000000" d="M183.3512,-47C171.9154,-47 159.5593,-47 147.7029,-47"/>
<polygon fill="#000000" stroke="#000000" points="147.4479,-43.5001 137.4479,-47 147.4478,-50.5001 147.4479,-43.5001"/>
</g>
<!-- a4 -->
<g id="node5" class="node">
<title>a4</title>
<ellipse fill="none" stroke="#000000" cx="47" cy="-180.2419" rx="47" ry="47"/>
<text text-anchor="middle" x="47" y="-176.5419" font-family="Segoe UI" font-size="14.00" fill="#000000">agent_0</text>
</g>
<!-- a3&#45;&gt;a4 -->
<g id="edge4" class="edge">
<title>a3&#45;&gt;a4</title>
<path fill="none" stroke="#000000" d="M75.7566,-91.7383C72.2227,-102.6143 68.4045,-114.3657 64.7406,-125.6419"/>
<polygon fill="#000000" stroke="#000000" points="61.3332,-124.8028 61.5717,-135.3949 67.9906,-126.9659 61.3332,-124.8028"/>
</g>
<!-- a4&#45;&gt;a0 -->
<g id="edge5" class="edge">
<title>a4&#45;&gt;a0</title>
<path fill="none" stroke="#000000" d="M85.0567,-207.8917C94.3084,-214.6135 104.3047,-221.8762 113.8968,-228.8453"/>
<polygon fill="#000000" stroke="#000000" points="112.0458,-231.8267 122.1932,-234.873 116.1603,-226.1636 112.0458,-231.8267"/>
</g>
</g>
</svg>
