<?xml version="1.0" encoding="UTF-8" standalone="no"?>
<!DOCTYPE svg PUBLIC "-//W3C//DTD SVG 1.1//EN"
 "http://www.w3.org/Graphics/SVG/1.1/DTD/svg11.dtd">
<!-- Generated by graphviz version 2.40.1 (20161225.0304)
 -->
<!-- Title: G Pages: 1 -->
<svg width="205pt" height="205pt"
 viewBox="0.00 0.00 205.01 205.01" xmlns="http://www.w3.org/2000/svg" xmlns:xlink="http://www.w3.org/1999/xlink">
<g id="graph0" class="graph" transform="scale(1 1) rotate(0) translate(4 201.0095)">
<title>G</title>
<polygon fill="#ffffff" stroke="transparent" points="-4,4 -4,-201.0095 201.0095,-201.0095 201.0095,4 -4,4"/>
<!-- a0 -->
<g id="node1" class="node">
<title>a0</title>
<ellipse fill="none" stroke="#000000" cx="98.5047" cy="-164.5095" rx="32.5" ry="32.5"/>
<text text-anchor="middle" x="98.5047" y="-160.8095" font-family="Segoe UI" font-size="14.00" fill="#000000">env</text>
</g>
<!-- a1 -->
<g id="node2" class="node">
<title>a1</title>
<ellipse fill="none" stroke="#000000" cx="164.5095" cy="-98.5047" rx="32.5" ry="32.5"/>
<text text-anchor="middle" x="164.5095" y="-94.8047" font-family="Segoe UI" font-size="14.00" fill="#000000">agent_0</text>
</g>
<!-- a0&#45;&gt;a1 -->
<g id="edge1" class="edge">
<title>a0&#45;&gt;a1</title>
<path fill="none" stroke="#000000" d="M121.59,-141.4242C125.5864,-137.4279 129.7966,-133.2176 133.9548,-129.0595"/>
<polygon fill="#000000" stroke="#000000" points="136.7295,-131.2345 141.3257,-121.6885 131.7797,-126.2847 136.7295,-131.2345"/>
</g>
<!-- a2 -->
<g id="node3" class="node">
<title>a2</title>
<ellipse fill="none" stroke="#000000" cx="98.5047" cy="-32.5" rx="32.5" ry="32.5"/>
<text text-anchor="middle" x="98.5047" y="-28.8" font-family="Segoe UI" font-size="14.00" fill="#000000">agent_1</text>
</g>
<!-- a1&#45;&gt;a2 -->
<g id="edge2" class="edge">
<title>a1&#45;&gt;a2</title>
<path fill="none" stroke="#000000" d="M141.4242,-75.4195C137.4279,-71.4231 133.2176,-67.2129 129.0595,-63.0547"/>
<polygon fill="#000000" stroke="#000000" points="131.2345,-60.28 121.6885,-55.6838 126.2847,-65.2298 131.2345,-60.28"/>
</g>
<!-- a3 -->
<g id="node4" class="node">
<title>a3</title>
<ellipse fill="none" stroke="#000000" cx="32.5" cy="-98.5047" rx="32.5" ry="32.5"/>
<text text-anchor="middle" x="32.5" y="-94.8047" font-family="Segoe UI" font-size="14.00" fill="#000000">agent_2</text>
</g>
<!-- a2&#45;&gt;a3 -->
<g id="edge3" class="edge">
<title>a2&#45;&gt;a3</title>
<path fill="none" stroke="#000000" d="M75.4195,-55.5853C71.4231,-59.5816 67.2129,-63.7919 63.0547,-67.95"/>
<polygon fill="#000000" stroke="#000000" points="60.28,-65.775 55.6838,-75.321 65.2298,-70.7247 60.28,-65.775"/>
</g>
<!-- a3&#45;&gt;a0 -->
<g id="edge4" class="edge">
<title>a3&#45;&gt;a0</title>
<path fill="none" stroke="#000000" d="M55.5853,-121.59C59.5816,-125.5864 63.7919,-129.7966 67.95,-133.9548"/>
<polygon fill="#000000" stroke="#000000" points="65.775,-136.7295 75.321,-141.3257 70.7247,-131.7797 65.775,-136.7295"/>
</g>
</g>
</svg>
