<?xml version="1.0" encoding="UTF-8" standalone="no"?>
<!DOCTYPE svg PUBLIC "-//W3C//DTD SVG 1.1//EN"
 "http://www.w3.org/Graphics/SVG/1.1/DTD/svg11.dtd">
<!-- Generated by graphviz version 2.40.1 (20161225.0304)
 -->
<!-- Title: G Pages: 1 -->
<svg width="237pt" height="218pt"
 viewBox="0.00 0.00 236.90 217.76" xmlns="http://www.w3.org/2000/svg" xmlns:xlink="http://www.w3.org/1999/xlink">
<g id="graph0" class="graph" transform="scale(1 1) rotate(0) translate(4 213.7589)">
<title>G</title>
<polygon fill="#ffffff" stroke="transparent" points="-4,4 -4,-213.7589 232.9044,-213.7589 232.9044,4 -4,4"/>
<!-- a0 -->
<g id="node1" class="node">
<title>a0</title>
<ellipse fill="none" stroke="#000000" cx="114.4522" cy="-166.7589" rx="43" ry="43"/>
<text text-anchor="middle" x="114.4522" y="-163.0589" font-family="Segoe UI" font-size="14.00" fill="#000000">env</text>
</g>
<!-- a1 -->
<g id="node2" class="node">
<title>a1</title>
<ellipse fill="none" stroke="#000000" cx="185.9044" cy="-43" rx="43" ry="43"/>
<text text-anchor="middle" x="185.9044" y="-39.3" font-family="Segoe UI" font-size="14.00" fill="#000000">speaker_0</text>
</g>
<!-- a0&#45;&gt;a1 -->
<g id="edge1" class="edge">
<title>a0&#45;&gt;a1</title>
<path fill="none" stroke="#000000" d="M136.0842,-129.2913C143.3595,-116.69 151.5635,-102.4802 159.183,-89.2829"/>
<polygon fill="#000000" stroke="#000000" points="162.3771,-90.7505 164.346,-80.3403 156.3149,-87.2505 162.3771,-90.7505"/>
</g>
<!-- a2 -->
<g id="node3" class="node">
<title>a2</title>
<ellipse fill="none" stroke="#000000" cx="43" cy="-43" rx="43" ry="43"/>
<text text-anchor="middle" x="43" y="-39.3" font-family="Segoe UI" font-size="14.00" fill="#000000">listener_0</text>
</g>
<!-- a1&#45;&gt;a2 -->
<g id="edge2" class="edge">
<title>a1&#45;&gt;a2</title>
<path fill="none" stroke="#000000" d="M142.6406,-43C128.0899,-43 111.6818,-43 96.4429,-43"/>
<polygon fill="#000000" stroke="#000000" points="96.1168,-39.5001 86.1168,-43 96.1168,-46.5001 96.1168,-39.5001"/>
</g>
<!-- a2&#45;&gt;a0 -->
<g id="edge3" class="edge">
<title>a2&#45;&gt;a0</title>
<path fill="none" stroke="#000000" d="M64.6319,-80.4676C71.9073,-93.0689 80.1113,-107.2787 87.7308,-120.476"/>
<polygon fill="#000000" stroke="#000000" points="84.8627,-122.5084 92.8938,-129.4186 90.9249,-119.0084 84.8627,-122.5084"/>
</g>
</g>
</svg>
