<?xml version="1.0" encoding="UTF-8" standalone="no"?>
<!DOCTYPE svg PUBLIC "-//W3C//DTD SVG 1.1//EN"
 "http://www.w3.org/Graphics/SVG/1.1/DTD/svg11.dtd">
<!-- Generated by graphviz version 2.40.1 (20161225.0304)
 -->
<!-- Title: G Pages: 1 -->
<svg width="257pt" height="236pt"
 viewBox="0.00 0.00 256.81 236.07" xmlns="http://www.w3.org/2000/svg" xmlns:xlink="http://www.w3.org/1999/xlink">
<g id="graph0" class="graph" transform="scale(1 1) rotate(0) translate(4 232.0721)">
<title>G</title>
<polygon fill="#ffffff" stroke="transparent" points="-4,4 -4,-232.0721 252.8132,-232.0721 252.8132,4 -4,4"/>
<!-- a0 -->
<g id="node1" class="node">
<title>a0</title>
<ellipse fill="none" stroke="#000000" cx="124.4066" cy="-181.0721" rx="47" ry="47"/>
<text text-anchor="middle" x="124.4066" y="-177.3721" font-family="Segoe UI" font-size="14.00" fill="#000000">env</text>
</g>
<!-- a1 -->
<g id="node2" class="node">
<title>a1</title>
<ellipse fill="none" stroke="#000000" cx="201.8132" cy="-47" rx="47" ry="47"/>
<text text-anchor="middle" x="201.8132" y="-43.3" font-family="Segoe UI" font-size="14.00" fill="#000000">adversary_0</text>
</g>
<!-- a0&#45;&gt;a1 -->
<g id="edge1" class="edge">
<title>a0&#45;&gt;a1</title>
<path fill="none" stroke="#000000" d="M148.0517,-140.1176C156.0046,-126.3427 164.9625,-110.8272 173.2524,-96.4686"/>
<polygon fill="#000000" stroke="#000000" points="176.3439,-98.1141 178.3128,-87.7038 170.2817,-94.614 176.3439,-98.1141"/>
</g>
<!-- a2 -->
<g id="node3" class="node">
<title>a2</title>
<ellipse fill="none" stroke="#000000" cx="47" cy="-47" rx="47" ry="47"/>
<text text-anchor="middle" x="47" y="-43.3" font-family="Segoe UI" font-size="14.00" fill="#000000">agent_0</text>
</g>
<!-- a1&#45;&gt;a2 -->
<g id="edge2" class="edge">
<title>a1&#45;&gt;a2</title>
<path fill="none" stroke="#000000" d="M154.5229,-47C138.6171,-47 120.7013,-47 104.1214,-47"/>
<polygon fill="#000000" stroke="#000000" points="104.0007,-43.5001 94.0007,-47 104.0006,-50.5001 104.0007,-43.5001"/>
</g>
<!-- a2&#45;&gt;a0 -->
<g id="edge3" class="edge">
<title>a2&#45;&gt;a0</title>
<path fill="none" stroke="#000000" d="M70.6451,-87.9546C78.598,-101.7294 87.5559,-117.2449 95.8459,-131.6035"/>
<polygon fill="#000000" stroke="#000000" points="92.8751,-133.4581 100.9062,-140.3684 98.9373,-129.9581 92.8751,-133.4581"/>
</g>
</g>
</svg>
