<?xml version="1.0" encoding="UTF-8" standalone="no"?>
<!DOCTYPE svg PUBLIC "-//W3C//DTD SVG 1.1//EN"
 "http://www.w3.org/Graphics/SVG/1.1/DTD/svg11.dtd">
<!-- Generated by graphviz version 2.40.1 (20161225.0304)
 -->
<!-- Title: G Pages: 1 -->
<svg width="297pt" height="329pt"
 viewBox="0.00 0.00 296.59 329.02" xmlns="http://www.w3.org/2000/svg" xmlns:xlink="http://www.w3.org/1999/xlink">
<g id="graph0" class="graph" transform="scale(1 1) rotate(0) translate(4 325.0174)">
<title>G</title>
<polygon fill="#ffffff" stroke="transparent" points="-4,4 -4,-325.0174 292.5932,-325.0174 292.5932,4 -4,4"/>
<!-- a0 -->
<g id="node1" class="node">
<title>a0</title>
<ellipse fill="none" stroke="#000000" cx="144.2966" cy="-281.5174" rx="39.5" ry="39.5"/>
<text text-anchor="middle" x="144.2966" y="-277.8174" font-family="Segoe UI" font-size="14.00" fill="#000000">env</text>
</g>
<!-- a1 -->
<g id="node2" class="node">
<title>a1</title>
<ellipse fill="none" stroke="#000000" cx="249.0932" cy="-221.013" rx="39.5" ry="39.5"/>
<text text-anchor="middle" x="249.0932" y="-217.313" font-family="Segoe UI" font-size="14.00" fill="#000000">pursuer_0</text>
</g>
<!-- a0&#45;&gt;a1 -->
<g id="edge1" class="edge">
<title>a0&#45;&gt;a1</title>
<path fill="none" stroke="#000000" d="M178.6109,-261.706C187.2963,-256.6915 196.7373,-251.2407 205.803,-246.0066"/>
<polygon fill="#000000" stroke="#000000" points="207.7915,-248.9001 214.7018,-240.8689 204.2915,-242.8379 207.7915,-248.9001"/>
</g>
<!-- a2 -->
<g id="node3" class="node">
<title>a2</title>
<ellipse fill="none" stroke="#000000" cx="249.0932" cy="-100.0043" rx="39.5" ry="39.5"/>
<text text-anchor="middle" x="249.0932" y="-96.3043" font-family="Segoe UI" font-size="14.00" fill="#000000">pursuer_1</text>
</g>
<!-- a1&#45;&gt;a2 -->
<g id="edge2" class="edge">
<title>a1&#45;&gt;a2</title>
<path fill="none" stroke="#000000" d="M249.0932,-181.3903C249.0932,-171.3612 249.0932,-160.4597 249.0932,-149.9915"/>
<polygon fill="#000000" stroke="#000000" points="252.5933,-149.7161 249.0932,-139.7161 245.5933,-149.7162 252.5933,-149.7161"/>
</g>
<!-- a3 -->
<g id="node4" class="node">
<title>a3</title>
<ellipse fill="none" stroke="#000000" cx="144.2966" cy="-39.5" rx="39.5" ry="39.5"/>
<text text-anchor="middle" x="144.2966" y="-35.8" font-family="Segoe UI" font-size="14.00" fill="#000000">pursuer_2</text>
</g>
<!-- a2&#45;&gt;a3 -->
<g id="edge3" class="edge">
<title>a2&#45;&gt;a3</title>
<path fill="none" stroke="#000000" d="M214.7789,-80.193C206.0934,-75.1784 196.6525,-69.7277 187.5867,-64.4936"/>
<polygon fill="#000000" stroke="#000000" points="189.0983,-61.3248 178.688,-59.3559 185.5983,-67.387 189.0983,-61.3248"/>
</g>
<!-- a4 -->
<g id="node5" class="node">
<title>a4</title>
<ellipse fill="none" stroke="#000000" cx="39.5" cy="-100.0043" rx="39.5" ry="39.5"/>
<text text-anchor="middle" x="39.5" y="-96.3043" font-family="Segoe UI" font-size="14.00" fill="#000000">pursuer_3</text>
</g>
<!-- a3&#45;&gt;a4 -->
<g id="edge4" class="edge">
<title>a3&#45;&gt;a4</title>
<path fill="none" stroke="#000000" d="M109.9823,-59.3114C101.2969,-64.3259 91.8559,-69.7767 82.7902,-75.0108"/>
<polygon fill="#000000" stroke="#000000" points="80.8017,-72.1173 73.8914,-80.1484 84.3017,-78.1795 80.8017,-72.1173"/>
</g>
<!-- a5 -->
<g id="node6" class="node">
<title>a5</title>
<ellipse fill="none" stroke="#000000" cx="39.5" cy="-221.013" rx="39.5" ry="39.5"/>
<text text-anchor="middle" x="39.5" y="-217.313" font-family="Segoe UI" font-size="14.00" fill="#000000">pursuer_4</text>
</g>
<!-- a4&#45;&gt;a5 -->
<g id="edge5" class="edge">
<title>a4&#45;&gt;a5</title>
<path fill="none" stroke="#000000" d="M39.5,-139.6271C39.5,-149.6562 39.5,-160.5577 39.5,-171.0259"/>
<polygon fill="#000000" stroke="#000000" points="36.0001,-171.3012 39.5,-181.3012 43.0001,-171.3013 36.0001,-171.3012"/>
</g>
<!-- a5&#45;&gt;a0 -->
<g id="edge6" class="edge">
<title>a5&#45;&gt;a0</title>
<path fill="none" stroke="#000000" d="M73.8143,-240.8244C82.4997,-245.8389 91.9407,-251.2897 101.0064,-256.5238"/>
<polygon fill="#000000" stroke="#000000" points="99.4949,-259.6925 109.9052,-261.6615 102.9949,-253.6303 99.4949,-259.6925"/>
</g>
</g>
</svg>
