<?xml version="1.0" encoding="UTF-8" standalone="no"?>
<!DOCTYPE svg PUBLIC "-//W3C//DTD SVG 1.1//EN"
 "http://www.w3.org/Graphics/SVG/1.1/DTD/svg11.dtd">
<!-- Generated by graphviz version 2.40.1 (20161225.0304)
 -->
<!-- Title: G Pages: 1 -->
<svg width="180pt" height="166pt"
 viewBox="0.00 0.00 180.18 165.82" xmlns="http://www.w3.org/2000/svg" xmlns:xlink="http://www.w3.org/1999/xlink">
<g id="graph0" class="graph" transform="scale(1 1) rotate(0) translate(4 161.8192)">
<title>G</title>
<polygon fill="#ffffff" stroke="transparent" points="-4,4 -4,-161.8192 176.1783,-161.8192 176.1783,4 -4,4"/>
<!-- a0 -->
<g id="node1" class="node">
<title>a0</title>
<ellipse fill="none" stroke="#000000" cx="86.0892" cy="-125.3192" rx="32.5" ry="32.5"/>
<text text-anchor="middle" x="86.0892" y="-121.6192" font-family="Segoe UI" font-size="14.00" fill="#000000">env</text>
</g>
<!-- a1 -->
<g id="node2" class="node">
<title>a1</title>
<ellipse fill="none" stroke="#000000" cx="139.6783" cy="-32.5" rx="32.5" ry="32.5"/>
<text text-anchor="middle" x="139.6783" y="-28.8" font-family="Segoe UI" font-size="14.00" fill="#000000">agent_0</text>
</g>
<!-- a0&#45;&gt;a1 -->
<g id="edge1" class="edge">
<title>a0&#45;&gt;a1</title>
<path fill="none" stroke="#000000" d="M102.4589,-96.966C107.4453,-88.3292 113.0024,-78.7041 118.2699,-69.5806"/>
<polygon fill="#000000" stroke="#000000" points="121.4399,-71.0898 123.4089,-60.6795 115.3777,-67.5898 121.4399,-71.0898"/>
</g>
<!-- a2 -->
<g id="node3" class="node">
<title>a2</title>
<ellipse fill="none" stroke="#000000" cx="32.5" cy="-32.5" rx="32.5" ry="32.5"/>
<text text-anchor="middle" x="32.5" y="-28.8" font-family="Segoe UI" font-size="14.00" fill="#000000">agent_1</text>
</g>
<!-- a1&#45;&gt;a2 -->
<g id="edge2" class="edge">
<title>a1&#45;&gt;a2</title>
<path fill="none" stroke="#000000" d="M106.9389,-32.5C96.9661,-32.5 85.8518,-32.5 75.317,-32.5"/>
<polygon fill="#000000" stroke="#000000" points="75.039,-29.0001 65.0389,-32.5 75.0389,-36.0001 75.039,-29.0001"/>
</g>
<!-- a2&#45;&gt;a0 -->
<g id="edge3" class="edge">
<title>a2&#45;&gt;a0</title>
<path fill="none" stroke="#000000" d="M48.8697,-60.8532C53.8561,-69.4899 59.4132,-79.1151 64.6807,-88.2386"/>
<polygon fill="#000000" stroke="#000000" points="61.7886,-90.2294 69.8197,-97.1396 67.8508,-86.7293 61.7886,-90.2294"/>
</g>
</g>
</svg>
